<?xml version="1.0" encoding="UTF-8" standalone="no"?>
<!-- Created with Inkscape (http://www.inkscape.org/) -->

<svg
   xmlns:dc="http://purl.org/dc/elements/1.1/"
   xmlns:cc="http://creativecommons.org/ns#"
   xmlns:rdf="http://www.w3.org/1999/02/22-rdf-syntax-ns#"
   xmlns:svg="http://www.w3.org/2000/svg"
   xmlns="http://www.w3.org/2000/svg"
   xmlns:sodipodi="http://sodipodi.sourceforge.net/DTD/sodipodi-0.dtd"
   xmlns:inkscape="http://www.inkscape.org/namespaces/inkscape"
   version="1.1"
   id="svg2"
   width="827.0752"
   height="314.07526"
   viewBox="0 0 827.07518 314.07526"
   sodipodi:docname="banner.svg"
   inkscape:version="0.92.2 5c3e80d, 2017-08-06">
  <metadata
     id="metadata8">
    <rdf:RDF>
      <cc:Work
         rdf:about="">
        <dc:format>image/svg+xml</dc:format>
        <dc:type
           rdf:resource="http://purl.org/dc/dcmitype/StillImage" />
        <dc:title />
      </cc:Work>
    </rdf:RDF>
  </metadata>
  <defs
     id="defs6" />
  <sodipodi:namedview
     pagecolor="#ffffff"
     bordercolor="#666666"
     borderopacity="1"
     objecttolerance="10"
     gridtolerance="10"
     guidetolerance="10"
     inkscape:pageopacity="0"
     inkscape:pageshadow="2"
     inkscape:window-width="1440"
     inkscape:window-height="803"
     id="namedview4"
     showgrid="false"
     inkscape:zoom="0.54348142"
     inkscape:cx="647.02066"
     inkscape:cy="75.365015"
     inkscape:window-x="0"
     inkscape:window-y="1"
     inkscape:window-maximized="1"
     inkscape:current-layer="flowRoot1088"
     fit-margin-top="0"
     fit-margin-left="0"
     fit-margin-right="0"
     fit-margin-bottom="0" />
  <g
     id="g2050"
     inkscape:export-filename="/Users/alicecorona/Documents/work/elab/sito_v1/img/banner.png"
     inkscape:export-xdpi="300"
     inkscape:export-ydpi="300">
    <g
       aria-label="Osservatorio CIvicO indipendente sulla casa e sulla residenzialità"
       transform="matrix(1.7758273,0,0,1.7758273,-1058.9421,428.02913)"
       style="font-style:normal;font-variant:normal;font-weight:normal;font-stretch:normal;font-size:13.33333302px;line-height:1.25;font-family:sans-serif;-inkscape-font-specification:'sans-serif, Normal';font-variant-ligatures:normal;font-variant-caps:normal;font-variant-numeric:normal;font-feature-settings:normal;text-align:start;letter-spacing:0px;word-spacing:0px;writing-mode:lr-tb;text-anchor:start;fill:#ffffff;fill-opacity:1;stroke:none"
       id="flowRoot1088">
      <g
         id="g935"
         inkscape:export-xdpi="300"
         inkscape:export-ydpi="300">
        <rect
           transform="matrix(0.56311782,0,0,0.56311782,596.30917,-241.03083)"
           style="opacity:1;vector-effect:none;fill:#ffffff;fill-opacity:1;stroke:none;stroke-width:0.92475677;stroke-linecap:butt;stroke-linejoin:miter;stroke-miterlimit:4;stroke-dasharray:none;stroke-dashoffset:0;stroke-opacity:0.4;paint-order:stroke fill markers"
           id="rect812"
           width="827.0752"
           height="314.07526"
           x="2.3046875e-06"
           y="1.279297e-07" />
        <rect
           transform="matrix(0.56311782,0,0,0.56311782,596.30917,-241.03083)"
           style="opacity:1;vector-effect:none;fill:#800000;fill-opacity:1;stroke:none;stroke-width:0.38443199;stroke-linecap:butt;stroke-linejoin:miter;stroke-miterlimit:4;stroke-dasharray:none;stroke-dashoffset:0;stroke-opacity:0.4;paint-order:stroke fill markers"
           id="rect978"
           width="827"
           height="40.626225"
           x="0.037554804"
           y="273.44904" />
        <path
           transform="matrix(0.56311782,0,0,0.56311782,596.30917,-241.03083)"
           style="opacity:1;fill:#000000;stroke-width:0.7074393"
           d="m 141.49858,296.62295 c -6.94278,-0.31377 -21.27811,-2.6133 -22.71851,-3.64437 -0.40107,-0.28703 -4.57637,-1.64755 -9.27847,-3.02332 -4.702,-1.37579 -9.0355,-2.8761 -9.629818,-3.3341 -0.594419,-0.45794 -3.336459,-1.99593 -6.093595,-3.41774 -2.757136,-1.42183 -6.175484,-3.53687 -7.59634,-4.70007 -3.650677,-2.98873 -12.882833,-9.30755 -13.575477,-9.29157 -0.318871,0.007 -0.809067,-0.8187 -1.089268,-1.83562 -0.280408,-1.01687 -1.714706,-3.03493 -3.18757,-4.48452 -7.742645,-7.62063 -9.61203,-10.894 -7.843145,-13.73434 0.829126,-1.3314 1.292543,-1.51624 2.398458,-0.95671 0.753957,0.3814 1.854496,1.35125 2.445709,2.15513 0.591111,0.804 1.413619,1.24143 1.827717,0.97212 1.100228,-0.71559 0.891163,-1.82457 -0.338619,-1.79621 -0.583563,0.0134 -1.071071,-0.41638 -1.083478,-0.95508 -0.01241,-0.53882 -0.861075,-1.50173 -1.885825,-2.13991 -1.589287,-0.98971 -1.806107,-1.50878 -1.474932,-3.53031 0.25094,-1.53189 0.07858,-2.55184 -0.488025,-2.88409 -0.482029,-0.28277 -0.985563,-0.15943 -1.118943,0.27389 -0.133483,0.43339 -1.154924,-0.12347 -2.269835,-1.23761 -1.11491,-1.11414 -2.390496,-2.01724 -2.834682,-2.007 -1.153683,0.0267 -1.021751,-1.06116 0.264278,-2.17963 0.71291,-0.61993 0.954028,-1.61007 0.684787,-2.81156 -0.28992,-1.29401 -0.01034,-2.21962 0.929832,-3.06162 1.422408,-1.2758 1.920359,-0.6641 0.591834,0.72709 -0.578496,0.60584 -0.191798,1.94489 1.500885,5.19641 2.20697,4.23937 2.301266,4.32092 2.933321,2.53557 1.385392,-3.91304 1.496542,-6.85781 0.341514,-9.04531 -0.625954,-1.18557 -1.017098,-2.86595 -0.869346,-3.73421 0.337999,-1.98617 -1.720082,-7.85767 -3.151485,-8.99093 -0.592351,-0.46901 -1.947862,-2.53204 -3.012212,-4.5846 -1.06435,-2.05257 -2.326909,-3.72282 -2.805628,-3.7118 -0.47872,0.011 -1.06466,-0.45308 -1.302056,-1.03142 -0.648184,-1.57939 -2.372299,-1.22193 -2.879762,0.59711 -0.265933,0.95338 -0.601554,1.25195 -0.828609,0.73709 -0.209996,-0.476 0.279167,-1.84043 1.086993,-3.03207 0.807723,-1.19158 1.287684,-2.71987 1.066418,-3.39606 -0.221162,-0.67627 -0.557507,-2.02209 -0.747444,-2.9907 -1.423545,-7.26147 -2.399905,-8.40214 -7.120205,-8.31774 -2.091375,0.0376 -3.276594,2.00546 -1.574295,2.61405 0.825093,0.29494 1.023095,1.19826 0.839672,3.83055 -0.235534,3.38003 0.302121,5.62247 2.507126,10.45952 0.607447,1.33252 1.268969,3.86475 1.470073,5.62713 0.583045,5.10944 1.017615,6.37363 2.181948,6.34679 0.616339,-0.0143 1.049461,0.51508 0.994455,1.21543 -0.188593,2.40398 0.120456,3.00464 1.529215,2.97217 1.263903,-0.0291 1.379602,0.28442 1.035709,2.80661 -0.259418,1.90263 -0.124074,2.83337 0.410479,2.82104 0.494436,-0.0114 0.831401,1.44676 0.886511,3.83635 0.05893,2.56894 0.424437,4.0357 1.094748,4.39742 0.553267,0.29845 1.134452,1.33581 1.291509,2.30519 0.197071,1.21613 0.79728,1.82292 1.936385,1.95759 1.230092,0.14538 1.532316,0.49913 1.186046,1.38789 -0.551613,1.41574 -0.537345,1.80334 0.191695,5.24654 0.460625,2.17467 0.355782,2.6454 -0.594109,2.66731 -0.634433,0.0146 -1.16454,-0.3712 -1.178188,-0.85736 -0.01241,-0.48623 -0.540447,-1.81985 -1.170847,-2.96352 -0.630297,-1.1438 -1.22637,-3.04065 -1.324596,-4.21524 -0.09822,-1.17467 -0.913806,-2.81997 -1.812311,-3.65641 -0.898607,-0.83636 -1.648842,-2.17673 -1.66735,-2.97853 -0.01861,-0.8019 -0.352268,-2.00352 -0.741654,-2.67035 -1.136416,-1.94602 -4.232895,-8.69951 -5.212668,-11.36912 -1.502435,-4.09345 -5.451201,-15.65739 -6.113653,-17.90355 -0.988975,-3.35372 -4.605635,-15.2228 -5.460093,-17.91862 -0.428573,-1.35228 -1.052977,-3.99268 -1.387563,-5.86757 -0.334484,-1.87485 -1.026611,-3.65428 -1.538004,-3.95427 -0.511392,-0.3 -0.738758,-0.87118 -0.505292,-1.2693 0.637018,-1.08588 -1.947448,-10.88747 -3.245781,-12.3092 -0.951029,-1.0415 -1.001796,-1.62102 -0.319595,-3.65257 0.44584,-1.32803 0.756749,-3.4731 0.690783,-4.76679 -0.06617,-1.29366 0.236775,-3.88106 0.672586,-5.74976 0.586251,-2.51336 0.580977,-3.59958 -0.02068,-4.17362 -0.863557,-0.8247 0.491851,-4.47923 2.203972,-5.94226 0.468069,-0.39994 1.036123,-1.61532 1.262248,-2.70071 0.226229,-1.08541 1.025163,-2.6164 1.775502,-3.40216 0.750339,-0.78581 1.396352,-2.14588 1.435332,-3.02246 0.03929,-0.87662 0.09719,-1.97668 0.128934,-2.4446 0.03205,-0.4679 1.380118,-2.03632 2.996185,-3.48541 1.615963,-1.44912 2.927531,-3.0973 2.914503,-3.66266 -0.01344,-0.56538 0.528453,-1.24853 1.203314,-1.51821 2.050223,-0.81901 3.280212,-3.2928 3.304509,-6.6461 0.03516,-4.79645 0.06928,-4.95499 1.090716,-4.97853 0.521215,-0.012 1.351168,-1.34635 1.844363,-2.96523 1.015548,-3.33349 4.347768,-8.499566 5.499383,-8.526118 1.286857,-0.02967 5.489561,-4.604994 5.458645,-5.942618 -0.01551,-0.692334 0.2893,-1.266177 0.678273,-1.275141 0.388972,-0.0093 0.695436,-0.531265 0.680857,-1.160642 -0.01447,-0.629398 0.824577,-2.21822 1.864525,-3.530863 1.040052,-1.312591 2.447157,-3.138405 3.126774,-4.057454 0.843394,-1.140335 1.361921,-1.39293 1.632817,-0.795512 0.685303,1.511203 2.397734,0.910136 3.236372,-1.136065 0.93004,-2.269018 4.32378,-7.076749 6.342157,-8.9847 2.514571,-2.377004 6.287461,-4.161025 7.393789,-3.496163 1.575226,0.946644 2.060149,0.763397 2.847607,-1.076127 0.609515,-1.423803 1.412999,-1.780207 5.063262,-2.245868 3.271424,-0.417271 5.195504,-1.157302 7.820501,-3.007848 1.914882,-1.349845 4.034072,-2.659634 4.709342,-2.910605 0.67527,-0.250951 1.22027,-0.784522 1.21107,-1.185674 -0.0103,-0.401236 0.35588,-0.738045 0.81155,-0.74855 0.45556,-0.01044 1.37091,-0.533333 2.03399,-1.161852 0.66307,-0.628508 1.63002,-1.215059 2.14855,-1.30342 0.51863,-0.08851 1.07355,-0.475091 1.23319,-0.859504 0.66731,-1.606399 3.34608,-3.033583 5.98865,-3.190413 1.55465,-0.09243 3.93243,-0.546992 5.28391,-1.01044 3.70961,-1.272009 9.27506,-1.672758 11.48059,-0.826613 1.46273,0.561167 2.20686,0.542183 2.91605,-0.07455 0.52359,-0.455322 1.47431,-0.641143 2.11267,-0.412919 0.64116,0.229227 1.15265,0.06442 1.14262,-0.367932 -0.0103,-0.43061 0.85777,-0.777997 1.92822,-0.771948 1.07035,0.0062 1.55207,0.180683 1.07035,0.388166 -1.62052,0.6977 -0.86614,1.579971 1.09092,1.275731 1.06642,-0.165784 2.35503,-0.333026 2.86363,-0.371571 0.5086,-0.03867 0.73535,-0.361201 0.50395,-0.717046 -0.5635,-0.866452 2.15631,-1.754523 3.29851,-1.07714 0.49682,0.294594 1.37361,0.595639 1.94838,0.668864 0.57488,0.07331 1.4646,0.679937 1.97723,1.348149 0.51263,0.66815 1.46687,1.280838 2.12063,1.361414 0.65377,0.08075 1.47845,0.637556 1.83268,1.237589 0.77226,1.30828 2.29734,1.441039 1.7692,0.154017 -0.26655,-0.649342 0.60176,-0.967282 3.09544,-1.133449 2.71537,-0.181003 4.12361,0.165298 6.50253,1.598914 1.7602,1.0607 3.87235,1.749643 5.025,1.639072 1.13135,-0.108493 2.97282,0.476383 4.27208,1.357217 1.59942,1.084233 3.16731,1.493398 5.23314,1.365757 2.09055,-0.129151 3.30741,0.195375 4.17882,1.114672 0.8649,0.912556 1.80673,1.167663 3.17703,0.860589 1.0812,-0.242234 2.16975,-0.09533 2.44674,0.330937 0.27452,0.422111 1.03736,0.756419 1.69516,0.742853 0.65781,-0.0152 2.76634,0.727106 4.68567,1.645835 1.91932,0.91879 4.6474,1.848519 6.06247,2.06628 1.41507,0.217647 3.63372,1.00283 4.93061,1.744897 1.29668,0.741974 3.78829,2.032367 5.53681,2.867541 4.10934,1.962741 8.96426,5.745495 8.99341,7.007257 0.0227,0.998932 3.49042,2.630787 4.1414,1.949051 0.19448,-0.203606 1.10436,0.403365 2.02209,1.348852 0.91764,0.945508 2.33022,1.703849 3.13898,1.685217 0.80876,-0.01861 1.66466,0.439285 1.90195,1.017585 0.2374,0.57832 0.84092,1.042047 1.34114,1.030519 0.50023,-0.01158 1.10375,0.452199 1.34114,1.03054 0.23729,0.578309 1.078,1.036578 1.86825,1.018359 0.79014,-0.01809 1.44433,0.301325 1.45384,0.710201 0.0103,0.408845 1.06145,1.152877 2.33787,1.653382 3.32705,1.304589 9.21313,8.28183 9.27568,10.994961 0.0155,0.659868 0.42857,1.190471 0.91846,1.179181 0.48989,-0.01137 1.30288,0.606846 1.80673,1.373594 0.50384,0.766789 1.21706,1.387181 1.58515,1.378713 1.01038,-0.02337 4.34952,3.369159 4.37434,4.444259 0.0124,0.51813 0.48896,1.31206 1.06001,1.76415 0.57115,0.45218 0.8863,1.24743 0.7004,1.76736 -0.18581,0.51985 1.13662,2.45627 2.93869,4.3032 1.80218,1.84682 3.49269,4.14904 3.75656,5.11591 0.26397,0.96693 1.15296,2.44668 1.97557,3.28835 1.19452,1.22203 1.76981,1.37542 2.85629,0.76133 0.74817,-0.42292 1.49334,-0.64206 1.65577,-0.48689 1.17157,1.11872 4.89949,17.83335 5.69242,25.52293 0.94752,9.18807 1.40287,30.16787 0.69854,32.18095 -0.20596,0.58854 -0.54086,2.48668 -0.74424,4.21813 -0.20338,1.73136 -0.83419,4.29338 -1.40204,5.69336 -0.56774,1.39988 -1.45901,3.60079 -1.98063,4.89093 -0.52153,1.29013 -0.93614,2.8709 -0.92136,3.51289 0.0258,1.13561 -2.51395,7.33261 -3.30358,8.05945 -0.74961,0.69005 -5.02531,10.37866 -4.85068,10.99169 0.0962,0.33845 -0.3564,1.2305 -1.00603,1.98246 -1.21097,1.40186 -3.5264,5.84055 -6.67044,12.78713 -0.97843,2.162 -2.35214,4.58191 -3.05264,5.37757 -0.7004,0.79567 -2.29972,3.25639 -3.5538,5.46813 -5.62056,9.91217 -23.92771,29.0856 -28.51835,29.86783 -0.62461,0.10639 -1.60738,0.90105 -2.18381,1.76587 -0.57653,0.86478 -1.5075,1.58289 -2.06894,1.59582 -0.56143,0.0129 -1.01896,0.26233 -1.01668,0.55417 0,0.29181 -1.33018,1.19733 -2.96103,2.01227 -1.63075,0.81492 -3.56921,2.05375 -4.30755,2.75292 -1.26235,1.19534 -1.66487,1.37515 -3.62524,1.61928 -0.43261,0.0537 -1.28479,0.53124 -1.89379,1.06084 -0.6091,0.52971 -2.46856,1.16591 -4.13219,1.41389 -1.66363,0.24801 -3.64809,1.0376 -4.41001,1.75481 -1.39521,1.31339 -12.57595,4.73115 -18.8052,5.74839 -1.84654,0.30158 -3.53395,0.84956 -3.74994,1.21768 -0.24215,0.41276 -0.71343,0.41959 -1.22927,0.0179 -0.52555,-0.40935 -2.27686,-0.37117 -4.71109,0.10133 -2.13098,0.41499 -10.0007,0.9133 -17.48826,1.10734 -7.48757,0.19375 -13.60826,0.58976 -13.60154,0.87907 0.0238,1.02004 3.29438,1.95697 4.45013,1.27471 0.71364,-0.42122 1.30661,-0.39652 1.608,0.067 0.26263,0.40378 1.10964,0.51739 1.88221,0.25237 0.90357,-0.3099 1.96265,0.002 2.96806,0.87414 0.85984,0.74576 2.04464,1.51945 2.63306,1.71934 1.38767,0.47128 -6.21653,0.53609 -15.21098,0.12955 z m -2.5398,-2.7365 c -0.0217,-0.94355 -0.36912,-1.25403 -1.07769,-0.96322 -0.57508,0.23603 -2.1958,-0.21424 -3.60167,-1.00063 -2.99215,-1.67362 -5.31441,-1.80801 -5.27977,-0.30545 0.0165,0.70651 0.73111,1.04458 2.14028,1.01209 1.34983,-0.0311 2.44737,0.45591 3.03165,1.34536 1.25636,1.91206 4.83176,1.84616 4.7872,-0.0883 z m -15.35584,-1.62204 c 0.17608,-0.30019 -0.10339,-1.09726 -0.61996,-1.77119 -0.88785,-1.15729 -0.95847,-1.14767 -1.27155,0.17295 -0.44305,1.86939 1.01141,3.09838 1.89141,1.59816 z m -8.35102,-3.19139 c 0.21651,-0.60556 0.21847,-1.26824 0,-1.47267 -0.54376,-0.5192 -3.30637,1.12606 -3.28724,1.95764 0.0258,1.12311 2.85742,0.7049 3.28279,-0.48498 z m -5.49577,-3.42263 c -0.0124,-0.56057 -0.34172,-1.01182 -0.73079,-1.00284 -0.38887,0.009 -0.69213,0.67158 -0.67362,1.47252 0.0186,0.80101 0.3473,1.25222 0.7308,1.00286 0.38338,-0.24936 0.68654,-0.91204 0.67361,-1.47254 z m -3.91381,-2.29459 c -0.72139,-1.10915 -1.82028,-0.16659 -1.29575,1.1114 0.28847,0.70288 0.67651,0.83015 1.11884,0.36701 0.37243,-0.39 0.45204,-1.05529 0.17691,-1.47841 z m -6.466028,0.21412 c 0.513875,-0.87587 -1.686582,-3.61453 -2.882037,-3.58696 -1.299781,0.03 -1.274139,0.38737 0.179184,2.49747 1.223165,1.77612 2.094269,2.12719 2.702957,1.08949 z M 136.8004,262.95517 c -0.0724,-1.53975 -4.52881,-4.31825 -6.8399,-4.26497 -3.81497,0.088 -0.95237,4.35107 3.40212,5.0668 3.16399,0.52005 3.49662,0.4424 3.43778,-0.80183 z m -12.33804,-3.75764 c -0.11415,-1.3967 -1.02754,-2.14583 -4.64017,-3.8057 -4.11264,-1.88965 -4.62476,-1.97345 -5.97872,-0.9778 l -1.48072,1.08884 1.96275,0.69486 c 1.07944,0.3822 2.21741,0.52925 2.52884,0.32671 1.03653,-0.67414 3.97006,1.27935 3.75934,2.50355 -0.13348,0.77477 0.36612,1.2838 1.43523,1.46267 0.90192,0.1509 1.84592,0.3129 2.09768,0.3601 0.25187,0.0473 0.39394,-0.69678 0.31577,-1.65323 z m 45.17511,-7.51064 c -0.24049,-0.22959 -0.85104,-0.24065 -1.35685,-0.0246 -0.55906,0.23875 -0.38763,0.40251 0.43715,0.41747 0.74621,0.0132 1.1601,-0.16327 0.9197,-0.39293 z m -3.99829,-12.92519 c 0.2314,-0.39454 0.10236,-0.70999 -0.28651,-0.70102 -0.38897,0.009 -0.89664,0.33911 -1.12804,0.73363 -0.2314,0.39453 -0.10236,0.71001 0.28651,0.70104 0.38897,-0.009 0.89654,-0.33912 1.12804,-0.73365 z m 21.86912,-18.26322 c 4.06405,-0.97576 8.26479,-1.78222 9.33482,-1.79209 1.07004,-0.009 1.94011,-0.25517 1.93339,-0.54507 -0.0103,-0.28985 1.08482,-0.75911 2.42565,-1.04281 4.26702,-0.90271 9.68565,-3.87358 15.05072,-8.25173 2.86508,-2.33805 5.33261,-4.57717 5.48336,-4.97589 0.15075,-0.39867 1.46893,-1.92696 2.92908,-3.39619 1.46025,-1.46916 2.64888,-2.93815 2.64133,-3.26432 -0.0103,-0.32626 0.76223,-1.46957 1.71047,-2.54076 0.94834,-1.0712 1.7146,-2.36398 1.70281,-2.87302 -0.0114,-0.50895 0.54614,-2.04829 1.2395,-3.42069 0.69348,-1.37241 2.02634,-4.9657 2.96197,-7.98505 0.93562,-3.01938 2.16426,-6.23358 2.73046,-7.14268 3.36861,-5.40914 3.2983,-21.33905 -0.1461,-33.10829 -1.07479,-3.67257 -2.17068,-7.46851 -2.43527,-8.43539 -1.01885,-3.72347 -6.5507,-12.35677 -10.48013,-16.35601 -2.91595,-2.96777 -6.46603,-5.4643 -12.22224,-8.59518 -4.46202,-2.42687 -9.13455,-5.26673 -10.38346,-6.31077 -1.24892,-1.044018 -4.63831,-2.921984 -7.53183,-4.173283 -2.89351,-1.251309 -5.91141,-2.863416 -6.70641,-3.582529 -1.45085,-1.312364 -6.33606,-4.105833 -11.23937,-6.4269 -1.44557,-0.684269 -6.25251,-2.001999 -10.68196,-2.928275 -4.42945,-0.926183 -8.16595,-1.958884 -8.30346,-2.294743 -0.13742,-0.3359 -0.88269,-0.596135 -1.65598,-0.578299 -1.67904,0.03877 -3.8248,-1.851291 -3.86181,-3.401485 -0.0145,-0.609638 -0.50354,-1.097457 -1.08648,-1.084015 -0.72521,0.01665 -0.98484,0.618323 -0.8223,1.90488 0.19997,1.582298 -0.0993,1.962668 -1.8882,2.398996 -1.1692,0.285236 -3.2616,0.172587 -4.64968,-0.250279 -2.10017,-0.639912 -2.81039,-0.571537 -4.23155,0.407274 -0.93935,0.64684 -3.37865,1.359388 -5.4207,1.583311 -2.04206,0.224026 -4.58527,0.552006 -5.65138,0.729019 -2.1197,0.351885 -2.83985,-1.298551 -0.91194,-2.089824 0.92662,-0.38036 0.8984,-0.56553 -0.20845,-1.365747 -1.681,-1.215296 -4.95728,-1.147469 -5.64393,0.11662 -0.2986,0.5497 -2.76075,1.482149 -5.47157,2.072112 -3.46343,0.753792 -4.9214,1.385133 -4.90444,2.123881 0.0134,0.578072 0.66359,1.155876 1.44484,1.283858 0.78146,0.128035 1.68534,0.668833 2.00887,1.201711 0.32352,0.532981 1.11801,0.956839 1.76557,0.94192 2.14576,-0.04953 -0.66193,2.13997 -3.39663,2.648684 -2.00659,0.373277 -2.58302,0.196679 -3.15759,-0.967117 -0.6731,-1.363286 -0.87969,-1.292946 -4.86877,1.658624 -2.29124,1.695226 -4.50018,3.793373 -4.90869,4.662585 -0.408618,0.869109 -1.256562,2.174835 -1.884378,2.901538 -0.627712,0.726692 -1.291302,2.893603 -1.474518,4.815343 -0.183217,1.92176 -0.586561,4.13681 -0.89654,4.92235 -0.510359,1.29365 -1.234228,4.16992 -1.67097,6.63933 -0.09202,0.51898 -0.385664,1.48104 -0.65294,2.13793 -0.267277,0.65683 -0.402828,1.88629 -0.30119,2.73211 0.101327,0.84574 -0.302741,2.53626 -0.898504,3.75647 -0.595867,1.22034 -0.854251,2.571 -0.574257,3.00141 0.279891,0.43053 0.62978,2.88099 0.777532,5.44547 0.252284,4.38028 1.831645,12.26604 3.517814,17.56422 0.410479,1.28965 3.653262,7.42435 7.206231,13.6326 3.55286,6.20826 7.22587,12.76687 8.16212,14.57462 0.93624,1.80772 2.02013,3.47332 2.4088,3.70127 0.38855,0.22796 0.71725,0.88263 0.73038,1.45479 0.0134,0.57225 1.80693,3.82066 3.98609,7.21875 2.17916,3.39804 4.18347,6.82395 4.45416,7.61313 0.66711,1.94545 5.76925,2.41906 17.70653,1.64356 9.70188,-0.63029 16.07019,-2.11846 28.92222,-6.75904 16.97655,-6.12982 38.12066,-18.26259 47.13744,-27.04812 1.71285,-1.66895 4.35139,-4.13605 5.86344,-5.48239 l 2.74907,-2.44784 -1.66745,2.49214 c -2.38802,3.569 -6.61998,7.71713 -11.2311,11.00879 -2.19725,1.5685 -4.54277,3.423 -5.21225,4.12122 -2.86084,2.98351 -22.16451,15.7114 -30.85167,20.34222 -5.19034,2.76676 -9.90847,5.29822 -10.48469,5.62556 -4.31882,2.45301 -18.18918,7.19779 -26.32844,9.00646 -2.32319,0.51628 -4.48601,1.104 -4.80623,1.30613 -0.79107,0.4993 6.43956,6.84694 9.99201,8.77185 2.77782,1.50511 7.01485,2.7111 11.39684,3.24381 5.72964,0.69655 24.27874,-0.77342 31.43193,-2.49095 z M 46.208857,181.54729 c -0.778153,-0.74309 -1.157406,0.33155 -0.592145,1.67789 0.530314,1.26298 0.568157,1.26429 0.787458,0.0279 0.126866,-0.71444 0.03929,-1.48195 -0.195313,-1.70552 z m -8.06255,-2.29431 c 0.554509,-1.71599 -0.302844,-2.66928 -1.693613,-1.88324 -0.752717,0.4255 -1.121217,1.17418 -0.874103,1.77627 0.519768,1.26651 2.170782,1.33527 2.567716,0.10688 z m 3.472734,-3.89214 c 0.242152,-0.25363 -0.2071,-1.32727 -0.998487,-2.38605 -0.791283,-1.05876 -1.446809,-2.27371 -1.456631,-2.69988 -0.01034,-0.42621 -0.525041,-0.76317 -1.144895,-0.74889 -0.619854,0.0143 -1.308259,-0.60671 -1.529629,-1.37998 -0.221369,-0.7733 -0.823956,-1.39627 -1.339174,-1.38439 -1.252116,0.0289 -2.160959,1.66189 -1.105811,1.98675 0.606619,0.18677 0.637845,0.64275 0.114768,1.67656 -0.803484,1.58819 0.276686,3.42944 1.9886,3.38997 0.535897,-0.0123 0.985252,0.45491 0.998694,1.03842 0.02481,1.06856 3.554209,1.46908 4.472462,0.50751 z m 33.694732,-2.44888 c -0.01034,-0.38896 -0.57312,-0.68954 -1.25377,-0.66789 -1.057526,0.0337 -1.080894,0.13546 -0.16078,0.7005 1.354684,0.83177 1.434401,0.82993 1.41455,-0.0326 z M 36.097945,160.05909 c -0.02585,-1.14158 -1.047496,-1.96385 -1.652255,-1.33053 -0.539205,0.56467 0.263555,2.38223 1.044188,2.36423 0.347305,-0.008 0.620992,-0.47319 0.608067,-1.0337 z M 149.673,52.670036 c -0.0134,-0.58349 -0.50188,-1.049865 -1.08534,-1.036413 -1.84064,0.0425 -1.212,1.422532 0.9317,2.045508 0.0982,0.02864 0.16708,-0.425605 0.15364,-1.009095 z m 10.9268,243.533754 c -0.25704,-0.39518 0.0238,-0.52031 0.65915,-0.2933 1.23609,0.44192 1.47193,0.94373 0.45463,0.96718 -0.36602,0.008 -0.86718,-0.29484 -1.11378,-0.67388 z m 6.32117,-0.89665 c -0.37026,-0.56947 -0.0651,-0.67676 1.02031,-0.35947 0.92383,0.26989 2.00007,0.0619 2.66852,-0.51644 0.94814,-0.82005 1.07076,-0.80464 0.79832,0.1 -0.39508,1.31168 -3.76018,1.89354 -4.48715,0.77584 z m -1.78625,-1.69265 c -0.0134,-0.58348 0.28382,-1.068 0.66059,-1.0767 0.37677,-0.008 0.51284,0.46586 0.30243,1.05448 -0.21041,0.58863 -0.50777,1.07315 -0.66059,1.07666 -0.15292,0.003 -0.28899,-0.47099 -0.30243,-1.05444 z m 27.15581,-3.81039 c 0.2314,-0.39455 0.72025,-0.72427 1.08627,-0.73269 0.36602,-0.008 0.6729,0.30293 0.68179,0.69191 0.0103,0.38899 -0.47986,0.7187 -1.08627,0.73267 -0.60642,0.0141 -0.91329,-0.29738 -0.68179,-0.69189 z m 376.36683,-19.29151 c -0.0103,-0.38895 -0.44243,-0.69742 -0.96364,-0.68539 -0.97916,0.0226 -2.65478,-2.79351 -2.69479,-4.52903 -0.0331,-1.4011 -1.51598,-2.09522 -2.15372,-1.00774 -0.77164,1.31509 -2.81452,0.35592 -2.85371,-1.33973 -0.0207,-0.90956 -0.49795,-1.42597 -1.3003,-1.40748 -0.69719,0.0161 -2.71981,-1.38965 -4.49459,-3.12373 -1.77519,-1.73407 -4.19464,-3.58819 -5.37624,-4.1201 -1.1817,-0.53202 -2.59366,-1.91302 -3.13721,-3.06898 -0.55751,-1.18433 -1.53128,-2.08929 -2.23086,-2.07316 -0.68303,0.0157 -1.62247,-0.7587 -2.08806,-1.7209 -0.46559,-0.96227 -1.17147,-1.7421 -1.56861,-1.73294 -0.41772,0.009 -0.76709,-1.91767 -0.8282,-4.56418 -0.0951,-4.15228 -0.28009,-4.68953 -1.97154,-5.74288 -1.63571,-1.01856 -1.82037,-1.49648 -1.49674,-3.87075 0.20327,-1.48977 0.0713,-3.26038 -0.29509,-3.93474 -3.01201,-5.55641 -4.41632,-8.50222 -4.85069,-10.17531 -0.27958,-1.0768 -1.14861,-2.48086 -1.931,-3.12012 -0.7825,-0.63935 -1.43544,-1.71177 -1.45095,-2.38326 -0.0269,-1.17522 -2.98233,-4.76383 -3.90544,-4.74254 -0.24712,0.006 -0.43095,0.80601 -0.40862,1.77849 0.032,1.3833 -0.32011,1.77646 -1.61772,1.80637 -2.34004,0.054 -4.04895,-2.05245 -4.11864,-5.07675 -0.0858,-3.74362 -2.18288,-8.23791 -5.03597,-10.79522 l -2.48448,-2.22697 -3.23565,2.32714 c -3.62762,2.60908 -13.43941,10.094 -16.09718,12.27979 -2.49989,2.05584 -16.6307,12.52008 -22.49083,16.65509 -2.74742,1.93857 -7.66841,4.97614 -10.9357,6.75007 -3.26728,1.77398 -6.10517,3.47043 -6.30648,3.76983 -0.20131,0.29953 -1.77189,1.23598 -3.49021,2.081 -1.71822,0.84505 -3.59505,1.82678 -4.17065,2.18165 -3.27794,2.02043 -11.17857,5.96265 -11.99519,5.98515 -0.52659,0.0122 -1.8942,0.54276 -3.0393,1.17385 -1.1451,0.63107 -3.67208,1.52066 -5.61539,1.97687 -1.94352,0.45616 -3.84661,1.06053 -4.22938,1.343 -1.12494,0.83029 -5.78972,2.14208 -14.02421,3.94361 -20.32077,4.44599 -43.80782,1.13035 -57.89748,-8.17301 -1.77839,-1.17427 -4.16506,-2.58878 -5.30355,-3.14336 -2.13759,-1.04108 -8.71766,-8.25183 -12.21283,-13.38321 -1.09382,-1.60593 -2.99515,-4.21477 -4.22525,-5.79754 -2.17874,-2.80362 -6.6359,-13.33205 -6.72265,-15.87993 -0.0238,-0.69986 -0.54644,-2.19284 -1.16143,-3.31773 -0.615,-1.12491 -1.31798,-3.71997 -1.5622,-5.76681 -1.19339,-10.00091 -1.28334,-11.77228 -0.61986,-12.20382 0.38794,-0.25227 0.66876,-2.04425 0.6241,-3.98213 -0.11984,-5.19891 2.18505,-12.32517 4.32047,-13.35827 1.85636,-0.89805 2.05839,-2.08003 0.95816,-5.60718 -0.54375,-1.74321 -0.42226,-2.88045 0.53135,-4.97619 0.67982,-1.4941 2.04784,-5.37692 3.03992,-8.62835 1.43295,-4.69614 2.28855,-6.29947 4.16124,-7.79731 1.37268,-1.09796 2.19115,-2.29059 1.95955,-2.85503 -0.21889,-0.53317 0.14899,-1.18561 0.81744,-1.44975 0.66845,-0.26419 1.36957,-0.69835 1.55796,-0.9648 0.18849,-0.26647 1.67583,-1.3629 3.30513,-2.43652 1.72701,-1.13797 2.94997,-2.49084 2.9326,-3.24415 -0.0165,-0.71063 0.75747,-1.67294 1.71977,-2.13844 0.96219,-0.46552 1.74262,-1.14613 1.73414,-1.51257 -0.0103,-0.36643 0.90388,-0.89044 2.02727,-1.1645 1.37919,-0.33644 2.30975,-1.18778 2.86519,-2.62139 0.45245,-1.16766 1.67552,-3.24861 2.71784,-4.6242 2.07773,-2.74178 8.39983,-7.59822 9.93762,-7.63366 0.53259,-0.0123 1.5591,-0.7094 2.28111,-1.54911 0.72211,-0.83968 2.02261,-1.81709 2.8901,-2.17196 0.91598,-0.3747 1.56354,-1.24417 1.54441,-2.0737 -0.0227,-1.00366 0.92074,-1.90378 3.17486,-3.02754 1.76433,-0.8795 3.55514,-2.184757 3.97957,-2.900593 0.51636,-0.870929 1.28862,-1.184299 2.33446,-0.947276 0.85952,0.194797 2.67545,-0.205456 4.0352,-0.889684 1.35986,-0.684073 2.77234,-1.067979 3.13877,-0.853031 0.36643,0.215031 1.60004,-0.101948 2.74142,-0.704804 1.14138,-0.60268 3.6454,-1.431165 5.56452,-1.841096 3.87649,-0.828205 9.25232,-2.959325 12.91075,-5.118299 4.29814,-2.536491 8.07444,-2.907896 6.25955,-0.615574 -0.5358,0.676743 -0.34204,1.111282 0.73937,1.658366 1.23165,0.623059 1.815,0.391661 3.65533,-1.450107 2.43641,-2.438193 3.24423,-2.695006 3.84837,-1.223051 0.73618,1.793844 2.38988,1.75564 5.75229,-0.132915 2.5003,-1.404251 3.92312,-1.768295 5.82901,-1.491341 1.38663,0.201548 3.84516,0.03671 5.4634,-0.366256 2.27552,-0.566689 3.13173,-0.514609 3.77899,0.229661 0.46031,0.529238 1.43202,0.94862 2.15941,0.931849 1.51825,-0.03505 4.93143,2.572183 4.95945,3.788234 0.0103,0.449035 0.96985,1.625207 2.13222,2.613768 2.1561,1.833796 7.88346,10.586439 11.04901,16.885309 0.96675,1.92366 1.94249,3.65255 2.1683,3.84194 0.76513,0.64178 0.84329,5.18198 0.10526,6.11418 -0.53797,0.67939 -0.31629,1.48521 0.83067,3.01975 1.22648,1.64103 1.41094,2.39631 0.85415,3.49685 -0.39052,0.7721 -0.69605,2.01693 -0.67879,2.76633 0.0248,1.06773 -1.04119,1.72846 -4.92698,3.05406 -3.75594,1.28129 -5.14143,2.11903 -5.713,3.4541 -0.55534,1.29724 -1.23433,1.72817 -2.57185,1.63237 -0.99963,-0.0719 -2.8505,0.44505 -4.11306,1.14804 -1.40514,0.78234 -3.5904,1.25378 -5.63308,1.21522 -5.93085,-0.11183 -10.327,-3.88321 -4.58836,-3.93625 2.92536,-0.0272 6.42404,-1.95098 6.38796,-3.51284 -0.03,-1.29826 -3.05419,-8.90496 -3.87846,-9.7552 -1.00149,-1.03299 -8.03081,-2.31158 -8.29953,-1.50964 -0.26242,0.78317 -4.99471,0.18769 -6.29098,-0.79166 -0.57653,-0.43556 -1.40007,-0.26642 -2.4456,0.50246 -0.86697,0.63755 -2.24295,1.17458 -3.05771,1.19337 -0.81475,0.0187 -3.32622,1.032 -5.58117,2.25155 -2.25494,1.21957 -4.47618,2.22606 -4.93608,2.23668 -1.24943,0.0287 -7.96619,5.95385 -7.94199,7.00577 0.0114,0.50101 -0.60766,1.26629 -1.37599,1.70058 -0.76843,0.43432 -1.38756,1.20306 -1.37588,1.70838 0.0114,0.50526 -1.18005,2.72043 -2.64805,4.92253 -1.46811,2.20207 -2.86549,4.67532 -3.10537,5.49609 -0.23977,0.82081 -0.73287,1.4992 -1.09568,1.50757 -0.36271,0.008 -0.64901,0.47192 -0.63609,1.03026 0.0134,0.55829 -1.0813,1.44353 -2.43133,1.96726 -2.7986,1.08555 -3.08583,2.26196 -0.90678,3.7145 l 1.5075,1.00497 -1.42282,0.80418 c -1.0323,0.58353 -1.56096,0.59198 -1.92594,0.0309 -0.79253,-1.21867 -1.71088,0.89616 -1.19763,2.75819 0.24205,0.87839 0.0496,2.08955 -0.42619,2.69138 -0.71147,0.89859 -0.63464,1.25579 0.42888,1.99646 1.50574,1.04862 0.9258,2.54059 -1.005,2.5851 -1.85822,0.0428 -2.36992,1.24523 -0.86842,2.04067 0.91371,0.48395 1.21965,1.39788 1.13125,3.3786 -0.38308,8.57913 0.22581,19.77686 1.16568,21.43766 1.17663,2.07926 2.8535,8.49558 2.48758,9.51903 -0.25466,0.71231 0.0941,1.03585 1.09113,1.01285 0.80586,-0.0185 1.80704,0.57087 2.22475,1.30997 0.41772,0.73905 2.58695,2.18618 4.82039,3.2158 3.57241,1.64685 5.04662,1.8817 12.25564,1.95241 7.7658,0.0762 8.63577,-0.0635 16.62284,-2.6669 4.63552,-1.51099 10.16985,-3.16844 12.29855,-3.68325 2.1287,-0.51479 4.02703,-1.16111 4.21852,-1.43617 0.19149,-0.27516 5.37738,-3.23123 11.52443,-6.56918 12.15803,-6.60209 18.11928,-10.26125 26.15991,-16.05754 6.97649,-5.02904 15.87385,-11.23526 23.41611,-16.33332 10.5126,-7.10593 16.58418,-11.53823 17.66021,-12.89212 0.56723,-0.71392 2.38347,-1.7572 4.03582,-2.31845 1.87456,-0.63669 4.02818,-2.18385 5.72665,-4.11382 3.45309,-3.92388 4.52188,-4.506 8.789,-4.7875 1.91137,-0.12618 3.78913,-0.41479 4.17283,-0.6416 0.38401,-0.22673 2.62613,-0.53246 4.98251,-0.67932 2.35627,-0.14693 5.06977,-0.58656 6.02949,-0.97707 1.05266,-0.42824 2.20552,-0.46622 2.90519,-0.096 1.06146,0.5623 3.77465,0.97265 7.23767,1.09462 0.74651,0.0269 1.16878,0.24528 0.93831,0.48664 -0.41431,0.43398 0.11094,1.20913 2.58095,3.80776 0.69781,0.73442 1.28768,2.14487 1.31043,3.13429 0.0227,0.98946 0.85694,2.63874 1.85377,3.66509 1.34331,1.38352 1.82999,2.64516 1.88148,4.8791 0.0496,2.15195 0.36075,3.00634 1.08855,2.98955 1.26566,-0.0292 2.01962,1.08288 2.33011,3.43644 0.13142,0.99634 1.0933,4.02086 2.13801,6.72112 1.0448,2.7003 1.92656,5.73162 1.95954,6.73632 0.0341,1.00464 0.28878,2.04438 0.56775,2.31061 1.24239,1.18669 3.1338,8.44482 2.51787,9.66253 -0.8162,1.61328 -0.71363,6.81048 0.14496,7.31368 1.05174,0.61701 2.79581,-0.39845 3.22873,-1.87971 0.51708,-1.7706 1.72028,-1.06686 1.76878,1.03473 0.0196,0.89275 0.85311,2.46331 1.84953,3.49018 0.99673,1.02693 1.82761,2.5361 1.84653,3.35378 0.0186,0.81765 0.83089,3.09113 1.80456,5.05216 0.97388,1.96111 2.52357,5.14041 3.44399,7.06515 0.92063,1.92477 2.79922,5.68448 4.17489,8.35482 1.37557,2.67026 2.84781,5.97987 3.27153,7.35465 0.4233,1.3747 1.49871,3.31197 2.38946,4.30503 1.43947,1.60482 1.88727,1.72641 4.02807,1.09283 2.80553,-0.83032 10.07896,-8.2359 10.60483,-10.79778 0.19004,-0.92532 1.09837,-4.56574 2.01889,-8.08971 0.92022,-3.52397 1.83113,-8.73102 2.02386,-11.57121 0.35186,-5.18546 1.42882,-6.52599 2.39277,-2.97858 0.93697,3.44726 1.63447,4.8317 2.23675,4.43995 1.2393,-0.80591 0.84122,7.58179 -0.4689,9.88377 -0.69988,1.22964 -1.43471,3.77827 -1.63312,5.6635 -0.19811,1.88528 -0.9806,4.25493 -1.7387,5.26584 -0.7583,1.01094 -1.36843,2.27528 -1.35602,2.80968 0.0114,0.53433 -0.90202,2.31168 -2.03203,3.94949 -1.12949,1.63788 -2.04795,3.24655 -2.0404,3.57484 0.0103,0.32831 -1.36006,3.59483 -3.03982,7.25886 -3.13763,6.84517 -9.37412,14.86189 -11.60197,14.91325 -0.61696,0.0143 -1.10985,0.53091 -1.09558,1.14814 0.0134,0.61726 -0.92083,1.50476 -2.07752,1.97215 -1.15688,0.46737 -2.09788,1.08708 -2.09116,1.37706 0.0227,1.02904 -2.92505,2.26035 -3.4563,1.4434 -0.73886,-1.13587 -5.39061,1.54885 -5.09004,2.93748 0.16368,0.75553 -0.69916,1.39889 -2.77575,2.06969 -1.65711,0.5353 -3.73763,1.27533 -4.623,1.64439 -2.42131,1.00922 -4.36959,0.86472 -4.39698,-0.32611 -0.0135,-0.5835 0.51645,-1.07334 1.17777,-1.0886 0.82706,-0.0191 0.96902,-0.25046 0.45504,-0.7413 -0.88982,-0.84976 -3.08779,-0.0965 -3.07694,1.05437 0,0.58961 -0.13999,0.5876 -0.53806,-0.007 -0.30006,-0.44874 -1.42675,-1.01562 -2.50413,-1.25966 -1.73415,-0.39303 -2.0404,-0.18976 -2.67483,1.77459 -0.65874,2.04003 -2.67835,3.19755 -2.71609,1.55695 z m 17.61699,-3.18896 c -0.0103,-0.36282 0.64063,-0.88452 1.44195,-1.1593 2.5096,-0.86065 1.0387,-1.06727 -1.70892,-0.24003 -1.43771,0.43282 -2.42079,1.0837 -2.18484,1.44637 0.55378,0.85159 2.47176,0.81474 2.45181,-0.0473 z m 6.17155,-2.79625 c 0.50592,-0.21609 1.11657,-0.20508 1.35696,0.0246 0.24039,0.22959 -0.17329,0.40637 -0.9198,0.39286 -0.82468,-0.0153 -0.99601,-0.17871 -0.43716,-0.41747 z m 145.82412,-3.46058 c -1.3642,-0.094 -4.88222,-0.74559 -7.81719,-1.44798 -4.65589,-1.11409 -6.94692,-2.02441 -13.95618,-5.54544 -1.51205,-0.75966 -4.38758,-2.79651 -8.52421,-6.03857 -1.31508,-1.03058 -3.1792,-2.97568 -4.14263,-4.32231 -0.96323,-1.34669 -2.0982,-2.44267 -2.52222,-2.43559 -0.42382,0.009 -1.15462,-0.78073 -1.62372,-1.75067 -0.46942,-0.96994 -1.61896,-2.03474 -2.55531,-2.36619 -1.74934,-0.6194 -6.96305,-6.18193 -6.99262,-7.46066 -0.0103,-0.39365 -0.61034,-1.46152 -1.33607,-2.373 -1.36037,-1.70863 -3.11437,-6.50905 -3.16399,-8.65959 -0.0155,-0.6705 -0.66763,-1.733 -1.44888,-2.36115 -1.37081,-1.10167 -1.86163,-2.56759 -3.91671,-11.69895 -0.52287,-2.32315 -1.22917,-4.75447 -1.56934,-5.40302 -0.34048,-0.64855 -0.82137,-3.66257 -1.06869,-6.69783 -1.60686,-19.72441 -2.17181,-24.97182 -2.74711,-25.52105 -0.22054,-0.2108 -1.58132,-0.0385 -3.02399,0.38198 l -2.62273,0.76527 -0.0703,-3.92417 c -0.061,-3.50519 0.24009,-4.3469 2.81628,-7.88267 1.58598,-2.17713 3.66753,-4.86519 4.62539,-5.97341 0.95775,-1.10824 1.72773,-2.61969 1.71067,-3.35886 -0.0165,-0.7392 0.28279,-1.54801 0.66628,-1.79737 0.38349,-0.24935 0.68944,-0.99171 0.67992,-1.6496 0,-0.65803 0.36044,-1.87821 0.82189,-2.71174 0.46156,-0.83354 1.55724,-2.92862 2.43455,-4.65571 1.6143,-3.17712 2.26838,-4.04312 6.42487,-8.5067 3.04447,-3.26893 9.5532,-4.98512 11.60683,-3.06024 1.22989,1.15267 1.42696,1.14268 4.18296,-0.2123 1.59073,-0.78199 3.07083,-1.92095 3.289,-2.53106 0.34772,-0.97302 0.74951,-0.93917 3.27277,0.27559 3.00238,1.44538 3.30471,1.97403 2.30602,4.0324 -0.33149,0.6835 -1.00263,2.2072 -1.49127,3.38609 -0.48875,1.17882 -1.01183,2.42449 -1.16206,2.76804 -0.31877,0.7283 1.57409,0.4246 12.57927,-2.01826 8.26799,-1.83521 11.57643,-3.29086 10.94985,-4.81756 -0.23977,-0.58383 0.90657,-1.03534 3.5874,-1.41327 3.55535,-0.50123 4.12134,-0.38993 5.80719,1.14212 1.64254,1.4928 2.64082,1.71264 8.28123,1.8235 6.78407,0.13322 10.14493,1.20559 16.45711,5.25101 1.63736,1.04937 3.25498,1.90155 3.59484,1.89373 0.33976,-0.008 2.18753,1.22331 4.10613,2.73584 1.91881,1.51257 3.77258,2.74353 4.11896,2.73555 0.34678,-0.008 0.6396,0.39284 0.65118,0.8907 0.0114,0.49793 1.07789,1.85863 2.3694,3.02396 1.29203,1.16526 3.50841,4.07586 4.92596,6.46794 1.41723,2.39217 3.31236,5.22686 4.21118,6.29934 1.88727,2.25184 6.48784,13.04619 7.32586,17.18881 0.31339,1.54954 1.16381,4.0774 1.88954,5.61747 1.4496,3.07644 2.85764,17.74598 1.74149,18.14683 -0.37191,0.13348 -0.34255,1.15206 0.0713,2.4791 0.83337,2.67166 0.39745,4.97075 -1.30516,6.88499 -0.68189,0.76685 -1.16433,2.11168 -1.07117,2.98848 0.16006,1.50644 -0.30409,2.91009 -2.53277,7.66423 -0.52183,1.1139 -0.93914,2.46045 -0.92683,2.99236 0.0114,0.53191 -0.79201,1.87795 -1.78729,2.99129 -0.99497,1.11324 -2.09934,2.90652 -2.45398,3.98497 -0.35444,1.07846 -0.94803,1.96784 -1.31933,1.97641 -0.37118,0.008 -0.98587,0.97801 -1.36564,2.15436 -0.37977,1.17632 -0.92446,2.14416 -1.20972,2.15074 -0.28537,0.006 -1.46615,1.54636 -2.62366,3.42175 -3.25581,5.27369 -11.15117,13.33107 -15.03851,15.34684 -1.92284,0.99703 -3.96459,2.1946 -4.53802,2.66135 -0.5727,0.4668 -2.62003,1.43991 -4.54939,2.16266 -1.92925,0.72267 -4.13839,1.59522 -4.90879,1.93901 -3.08066,1.37441 -13.69055,2.41316 -20.12194,1.9701 z m 33.54212,-46.12445 c 4.73839,-5.39791 7.14078,-17.47424 5.21287,-26.20493 -1.04956,-4.75442 -5.21246,-14.51981 -7.48653,-17.56259 -0.85001,-1.13719 -1.55269,-2.3891 -1.56189,-2.78206 -0.0362,-1.55079 -8.52969,-8.63424 -12.26536,-10.22858 -3.46911,-1.48056 -5.42742,-1.72073 -16.6766,-2.04539 -7.00999,-0.20239 -15.69384,-0.49135 -19.29768,-0.64221 -7.4795,-0.31322 -7.66324,-0.12299 -5.0705,5.25391 0.76388,1.58431 1.64802,3.9417 1.9643,5.23862 0.31649,1.29699 0.83337,2.84035 1.14852,3.42966 0.31556,0.58925 1.01709,2.49416 1.55919,4.23303 2.28028,7.31283 13.50786,24.6156 19.49424,30.0425 8.01509,7.26588 15.08628,11.5179 21.94738,13.19676 6.45186,1.57882 8.22529,1.26873 11.03206,-1.92872 z m -722.812027,-0.4285 c -0.265933,-0.4089 -0.335311,-0.89874 -0.154369,-1.08838 0.181148,-0.1897 0.529176,0.1419 0.773292,0.73687 0.506947,1.23527 0.10443,1.46383 -0.619027,0.3515 z M 37.283061,119.38492 c -0.01034,-0.38897 0.297468,-0.91129 0.680857,-1.16063 0.383493,-0.24938 0.704535,-0.13523 0.71353,0.2538 0.01034,0.38897 -0.297468,0.91135 -0.680857,1.16069 -0.383493,0.24934 -0.704535,0.13527 -0.71353,-0.25386 z M 548.32263,69.535754 c -0.6607,-0.158143 -1.31663,-0.981768 -1.45746,-1.830281 -0.16584,-0.999583 -0.75406,-1.531282 -1.67035,-1.510148 -3.86801,0.08913 -4.22793,-2.428515 -0.63278,-4.427299 1.51547,-0.842702 2.5671,-1.940149 2.49514,-2.603605 -0.0682,-0.630803 0.35619,-1.157953 0.9441,-1.171508 0.89313,-0.02058 0.91246,-0.204681 0.11849,-1.118085 -0.78798,-0.906196 -0.77929,-1.20749 0.0465,-1.759465 0.55058,-0.366309 1.53862,-0.683225 2.19611,-0.704349 1.65184,-0.05325 2.21441,-1.263706 0.90905,-1.955254 -0.91112,-0.482742 -0.82592,-0.8536 0.55441,-2.413058 0.89747,-1.01349 1.82968,-2.856819 2.07224,-4.09632 0.32011,-1.636612 0.94483,-2.392534 2.28162,-2.760972 2.05591,-0.56673 5.3659,-4.285058 5.32682,-5.98381 -0.0341,-1.482294 6.2856,-5.136993 9.01513,-5.213454 1.57078,-0.04353 1.89833,-0.233673 1.16526,-0.674457 -0.7553,-0.453967 -0.30388,-0.809915 1.73725,-1.369862 5.29745,-1.45325 5.92392,-1.549553 5.93871,-0.912949 0.0103,0.352568 0.76946,0.623649 1.69216,0.60237 1.41569,-0.03257 1.76051,0.409962 2.20511,2.83217 0.51181,2.787514 0.59122,2.85531 2.72643,2.334446 2.19642,-0.535721 2.1987,-0.533074 1.84343,2.027869 -0.19552,1.410352 -0.0662,2.557687 0.28517,2.54955 1.20445,-0.02781 -0.0713,1.984288 -1.52188,2.39945 -1.11615,0.319481 -1.35851,0.82711 -1.05959,2.217093 0.37263,1.731879 0.17629,1.925445 -2.1805,2.149513 -0.55058,0.05242 -1.12453,0.495511 -1.27507,0.984798 -0.16574,0.538668 1.9246,1.85798 5.30159,3.345392 7.83487,3.451187 10.0864,6.569027 6.84414,9.477275 -1.31643,1.180907 -1.6657,1.181093 -6.54533,0.0031 -8.51036,-2.053749 -13.37086,-2.21244 -16.33727,-0.533271 -1.39118,0.787478 -2.29392,1.669687 -2.00555,1.960579 0.28847,0.290851 -0.19852,0.324795 -1.08162,0.07517 -1.12349,-0.317237 -1.72453,-0.122957 -1.99946,0.64652 -0.2163,0.605058 -1.47627,1.329197 -2.79973,1.609191 -1.32377,0.280067 -2.63689,0.943719 -2.91823,1.474756 -0.28123,0.531079 -1.69961,1.140822 -3.152,1.355056 -1.45229,0.214121 -3.69328,1.074121 -4.97972,1.910909 -1.28665,0.836839 -2.46194,1.48736 -2.61145,1.44565 -0.14961,-0.04188 -0.81269,-0.205218 -1.47369,-0.363341 z m -7.54268,-10.668707 c 0.2313,-0.394525 0.56092,-0.720572 0.73266,-0.724532 0.17164,-0.0041 0.31918,0.311096 0.32818,0.700068 0.0103,0.389004 -0.32053,0.715009 -0.73256,0.724501 -0.41213,0.0093 -0.55947,-0.305512 -0.32828,-0.700037 z"
           id="path817"
           inkscape:connector-curvature="0"
           sodipodi:nodetypes="ccscscsccccccsscscccsccccccccccscccccccccccscsssscccccsccccsccscssccccccccscccsccscssssccccccccccssssccccccsccccccccccscccccccccscccsccscscsscssssscccscccsccccsccccccccscsccccccccccsccccccccccsscccccccccsccssssscccccscccscccccccccccccccccsssssccsccccsssccccccscsccccscsccccccccccsccscccccsccccccscsccsccsccccccccccccccccccccccccccssssccsscsccsscsssscsccsccccccsscssssssscsscsscccscsscccccsssssccscccccccscccccccccscscccccccscssscccsccsccccccccccccccccsscsccccscsccccsccccssssssccssccccccccsccccsccccccccccccccccccccscsssssccccscscccccccccccccsscscssssccccsscccccccccccccccccccccccscscsccccccccccsscscccccccscccscccsssscccccsccccscsscsccccccccccsscccccccccccccsssssccscsssccccccscccsscccscccccccccccscsccccsssss" />
        <path
           id="path2175"
           style="font-weight:bold;font-size:11.01688099px;fill:#ffffff"
           d="m 740.04511,-76.334342 q 0,1.156557 -0.40883,2.02801 -0.40883,0.871452 -1.1727,1.344834 -0.75848,0.473381 -1.7429,0.473381 -0.97366,0 -1.73753,-0.468002 -0.76386,-0.468002 -1.18345,-1.334075 -0.41959,-0.871453 -0.42497,-2.001114 v -0.387312 q 0,-1.156557 0.41421,-2.033389 0.41959,-0.882211 1.17808,-1.350213 0.76386,-0.473382 1.7429,-0.473382 0.97904,0 1.73753,0.473382 0.76386,0.468002 1.17807,1.350213 0.41959,0.876832 0.41959,2.02801 z m -1.63532,-0.355036 q 0,-1.231868 -0.4411,-1.872009 -0.44111,-0.640142 -1.25877,-0.640142 -0.81228,0 -1.25338,0.634762 -0.44111,0.629383 -0.44649,1.850492 v 0.381933 q 0,1.199592 0.44111,1.86125 0.4411,0.661659 1.26952,0.661659 0.81228,0 1.24801,-0.634762 0.43572,-0.640141 0.4411,-1.861251 z" />
        <path
           id="path2177"
           style="font-style:normal;font-variant:normal;font-weight:normal;font-stretch:normal;font-size:11.01688099px;font-family:Roboto;-inkscape-font-specification:Roboto;fill:#ffffff"
           d="m 744.67134,-74.139573 q 0,-0.40345 -0.30662,-0.624003 -0.30125,-0.225932 -1.05973,-0.387312 -0.75311,-0.16138 -1.19959,-0.387312 -0.44111,-0.225933 -0.65628,-0.537934 -0.2098,-0.312002 -0.2098,-0.742348 0,-0.715452 0.60249,-1.210351 0.60786,-0.494899 1.54925,-0.494899 0.98979,0 1.60304,0.511037 0.61862,0.511037 0.61862,1.307179 h -1.00055 q 0,-0.40883 -0.34966,-0.704694 -0.34428,-0.295863 -0.87145,-0.295863 -0.54332,0 -0.84994,0.236691 -0.30662,0.236691 -0.30662,0.618623 0,0.360416 0.2851,0.543313 0.28511,0.182898 1.02746,0.349657 0.74773,0.16676 1.21035,0.398071 0.46262,0.231312 0.68317,0.559451 0.22594,0.32276 0.22594,0.790763 0,0.780003 -0.62401,1.253385 -0.624,0.468002 -1.61918,0.468002 -0.69931,0 -1.23724,-0.247449 -0.53794,-0.24745 -0.84456,-0.688555 -0.30124,-0.446485 -0.30124,-0.962901 h 0.99517 q 0.0269,0.500278 0.39807,0.796141 0.37656,0.290485 0.9898,0.290485 0.56483,0 0.90373,-0.225933 0.34428,-0.231311 0.34428,-0.613244 z" />
        <path
           id="path2179"
           style="font-style:normal;font-variant:normal;font-weight:normal;font-stretch:normal;font-size:11.01688099px;font-family:Roboto;-inkscape-font-specification:Roboto;fill:#ffffff"
           d="m 750.35192,-74.139573 q 0,-0.40345 -0.30662,-0.624003 -0.30125,-0.225932 -1.05973,-0.387312 -0.75311,-0.16138 -1.1996,-0.387312 -0.4411,-0.225933 -0.65627,-0.537934 -0.2098,-0.312002 -0.2098,-0.742348 0,-0.715452 0.60249,-1.210351 0.60786,-0.494899 1.54925,-0.494899 0.98979,0 1.60304,0.511037 0.61862,0.511037 0.61862,1.307179 h -1.00055 q 0,-0.40883 -0.34966,-0.704694 -0.34428,-0.295863 -0.87145,-0.295863 -0.54332,0 -0.84994,0.236691 -0.30662,0.236691 -0.30662,0.618623 0,0.360416 0.2851,0.543313 0.28511,0.182898 1.02746,0.349657 0.74772,0.16676 1.21035,0.398071 0.46262,0.231312 0.68317,0.559451 0.22594,0.32276 0.22594,0.790763 0,0.780003 -0.62401,1.253385 -0.624,0.468002 -1.61918,0.468002 -0.69931,0 -1.23725,-0.247449 -0.53793,-0.24745 -0.84455,-0.688555 -0.30124,-0.446485 -0.30124,-0.962901 h 0.99517 q 0.0269,0.500278 0.39807,0.796141 0.37656,0.290485 0.9898,0.290485 0.56483,0 0.90373,-0.225933 0.34428,-0.231311 0.34428,-0.613244 z" />
        <path
           id="path2181"
           style="font-style:normal;font-variant:normal;font-weight:normal;font-stretch:normal;font-size:11.01688099px;font-family:Roboto;-inkscape-font-specification:Roboto;fill:#ffffff"
           d="m 755.05884,-72.488117 q -1.18346,0 -1.92581,-0.774624 -0.74234,-0.780004 -0.74234,-2.081803 v -0.182898 q 0,-0.866073 0.32814,-1.543869 0.33351,-0.683176 0.92524,-1.065109 0.59711,-0.387312 1.29104,-0.387312 1.13504,0 1.76442,0.747728 0.62939,0.747727 0.62939,2.140976 v 0.414208 h -3.94306 q 0.0215,0.860694 0.50028,1.393249 0.48414,0.527175 1.22649,0.527175 0.52718,0 0.89297,-0.215174 0.36579,-0.215173 0.64014,-0.57021 l 0.60787,0.473382 q -0.73159,1.124281 -2.19477,1.124281 z m -0.12373,-5.217956 q -0.60248,0 -1.01131,0.441106 -0.40883,0.435726 -0.50566,1.226488 h 2.9156 v -0.07531 q -0.043,-0.758487 -0.40883,-1.172696 -0.36579,-0.419588 -0.9898,-0.419588 z" />
        <path
           id="path2183"
           style="font-style:normal;font-variant:normal;font-weight:normal;font-stretch:normal;font-size:11.01688099px;font-family:Roboto;-inkscape-font-specification:Roboto;fill:#ffffff"
           d="m 761.28811,-77.523176 q -0.22593,-0.03765 -0.48952,-0.03765 -0.97904,0 -1.3287,0.833797 v 4.131331 h -0.99517 v -5.820442 h 0.96828 l 0.0161,0.672417 q 0.48952,-0.780004 1.38787,-0.780004 0.29049,0 0.44111,0.07531 z" />
        <path
           id="path2185"
           style="font-style:normal;font-variant:normal;font-weight:normal;font-stretch:normal;font-size:11.01688099px;font-family:Roboto;-inkscape-font-specification:Roboto;fill:#ffffff"
           d="m 764.22523,-73.945917 1.44166,-4.470228 h 1.01669 l -2.08718,5.820442 h -0.75849 l -2.1087,-5.820442 h 1.0167 z" />
        <path
           id="path2187"
           style="font-style:normal;font-variant:normal;font-weight:normal;font-stretch:normal;font-size:11.01688099px;font-family:Roboto;-inkscape-font-specification:Roboto;fill:#ffffff"
           d="m 771.14843,-72.595703 q -0.0861,-0.172139 -0.13986,-0.613245 -0.69393,0.720831 -1.65684,0.720831 -0.86069,0 -1.41476,-0.48414 -0.54869,-0.48952 -0.54869,-1.237247 0,-0.909108 0.68855,-1.409386 0.69394,-0.505658 1.94732,-0.505658 h 0.96828 v -0.457244 q 0,-0.521795 -0.312,-0.828418 -0.312,-0.312001 -0.91987,-0.312001 -0.53255,0 -0.89297,0.268967 -0.36041,0.268967 -0.36041,0.6509 h -1.00056 q 0,-0.435727 0.30662,-0.839177 0.31201,-0.40883 0.83918,-0.64552 0.53256,-0.236691 1.16732,-0.236691 1.00593,0 1.57614,0.505657 0.57021,0.500279 0.59173,1.38249 v 2.678909 q 0,0.801522 0.20441,1.274903 v 0.08607 z m -1.65145,-0.758487 q 0.468,0 0.88759,-0.24207 0.41959,-0.24207 0.60786,-0.629382 v -1.194213 h -0.78 q -1.82898,0 -1.82898,1.070488 0,0.468002 0.31201,0.73159 0.312,0.263587 0.80152,0.263587 z" />
        <path
           id="path2189"
           style="font-style:normal;font-variant:normal;font-weight:normal;font-stretch:normal;font-size:11.01688099px;font-family:Roboto;-inkscape-font-specification:Roboto;fill:#ffffff"
           d="m 774.90859,-79.825532 v 1.409387 h 1.08662 v 0.769245 h -1.08662 v 3.609534 q 0,0.349657 0.14524,0.527175 0.14524,0.172139 0.4949,0.172139 0.17214,0 0.47338,-0.06455 v 0.806901 q -0.39269,0.107586 -0.76387,0.107586 -0.66703,0 -1.00593,-0.40345 -0.3389,-0.40345 -0.3389,-1.145799 V -77.6469 h -1.05973 v -0.769245 h 1.05973 v -1.409387 z" />
        <path
           id="path2191"
           style="font-style:normal;font-variant:normal;font-weight:normal;font-stretch:normal;font-size:11.01688099px;font-family:Roboto;-inkscape-font-specification:Roboto;fill:#ffffff"
           d="m 776.7806,-75.559718 q 0,-0.855314 0.33352,-1.53849 0.33889,-0.683176 0.936,-1.05435 0.60249,-0.371174 1.37173,-0.371174 1.18883,0 1.92042,0.823038 0.73697,0.823039 0.73697,2.18939 v 0.06993 q 0,0.849935 -0.32814,1.527731 -0.32276,0.672417 -0.93062,1.048971 -0.60249,0.376553 -1.38787,0.376553 -1.18345,0 -1.92042,-0.823038 -0.73159,-0.823039 -0.73159,-2.178631 z m 1.00055,0.118346 q 0,0.96828 0.44649,1.554628 0.45186,0.586348 1.20497,0.586348 0.75849,0 1.20497,-0.591727 0.44649,-0.597107 0.44649,-1.667595 0,-0.957522 -0.45725,-1.549249 -0.45186,-0.597106 -1.20497,-0.597106 -0.73697,0 -1.18883,0.586348 -0.45187,0.586347 -0.45187,1.678353 z" />
        <path
           id="path2193"
           style="font-style:normal;font-variant:normal;font-weight:normal;font-stretch:normal;font-size:11.01688099px;font-family:Roboto;-inkscape-font-specification:Roboto;fill:#ffffff"
           d="m 786.14064,-77.523176 q -0.22593,-0.03765 -0.48952,-0.03765 -0.97904,0 -1.32869,0.833797 v 4.131331 h -0.99518 v -5.820442 h 0.96828 l 0.0161,0.672417 q 0.48952,-0.780004 1.38787,-0.780004 0.29048,0 0.4411,0.07531 z" />
        <path
           id="path2195"
           style="font-style:normal;font-variant:normal;font-weight:normal;font-stretch:normal;font-size:11.01688099px;font-family:Roboto;-inkscape-font-specification:Roboto;fill:#ffffff"
           d="m 788.131,-72.595703 h -0.99518 v -5.820442 h 0.99518 z m -1.07587,-7.364312 q 0,-0.24207 0.14524,-0.40883 0.15062,-0.166759 0.44111,-0.166759 0.29048,0 0.4411,0.166759 0.15062,0.16676 0.15062,0.40883 0,0.24207 -0.15062,0.40345 -0.15062,0.16138 -0.4411,0.16138 -0.29049,0 -0.44111,-0.16138 -0.14524,-0.16138 -0.14524,-0.40345 z" />
        <path
           id="path2197"
           style="font-style:normal;font-variant:normal;font-weight:normal;font-stretch:normal;font-size:11.01688099px;font-family:Roboto;-inkscape-font-specification:Roboto;fill:#ffffff"
           d="m 789.45431,-75.559718 q 0,-0.855314 0.33352,-1.53849 0.3389,-0.683176 0.93601,-1.05435 0.60248,-0.371174 1.37173,-0.371174 1.18883,0 1.92042,0.823038 0.73697,0.823039 0.73697,2.18939 v 0.06993 q 0,0.849935 -0.32814,1.527731 -0.32276,0.672417 -0.93062,1.048971 -0.60249,0.376553 -1.38787,0.376553 -1.18346,0 -1.92043,-0.823038 -0.73159,-0.823039 -0.73159,-2.178631 z m 1.00056,0.118346 q 0,0.96828 0.44649,1.554628 0.45186,0.586348 1.20497,0.586348 0.75848,0 1.20497,-0.591727 0.44648,-0.597107 0.44648,-1.667595 0,-0.957522 -0.45724,-1.549249 -0.45186,-0.597106 -1.20497,-0.597106 -0.73697,0 -1.18884,0.586348 -0.45186,0.586347 -0.45186,1.678353 z" />
        <path
           id="path2199"
           style="font-weight:bold;font-size:11.01688099px;fill:#ffffff"
           d="m 804.82846,-75.204682 q -0.0914,1.264144 -0.93601,1.990355 -0.83918,0.72621 -2.21629,0.72621 -1.50621,0 -2.37228,-1.011315 -0.8607,-1.016695 -0.8607,-2.786496 v -0.478761 q 0,-1.129661 0.39807,-1.990355 0.39808,-0.860693 1.13504,-1.317937 0.74235,-0.462623 1.72139,-0.462623 1.35559,0 2.18401,0.72621 0.82842,0.726211 0.95752,2.038769 h -1.6138 q -0.0592,-0.758486 -0.42496,-1.097385 -0.36042,-0.344277 -1.10277,-0.344277 -0.8069,0 -1.21035,0.580968 -0.39807,0.575589 -0.40883,1.791319 v 0.591727 q 0,1.269524 0.38193,1.855871 0.38732,0.586348 1.21573,0.586348 0.74773,0 1.11353,-0.338898 0.37117,-0.344278 0.42496,-1.05973 z" />
        <path
           id="path2201"
           style="font-weight:bold;font-size:11.01688099px;fill:#ffffff"
           d="m 807.6042,-72.595703 h -1.61381 v -7.832314 h 1.61381 z" />
        <path
           id="path2203"
           style="font-style:normal;font-variant:normal;font-weight:normal;font-stretch:normal;font-size:11.01688099px;font-family:Roboto;-inkscape-font-specification:Roboto;fill:#ffffff"
           d="m 811.06849,-73.945917 1.44166,-4.470228 h 1.0167 l -2.08719,5.820442 h -0.75848 l -2.1087,-5.820442 h 1.01669 z" />
        <path
           id="path2205"
           style="font-style:normal;font-variant:normal;font-weight:normal;font-stretch:normal;font-size:11.01688099px;font-family:Roboto;-inkscape-font-specification:Roboto;fill:#ffffff"
           d="m 815.56562,-72.595703 h -0.99518 v -5.820442 h 0.99518 z m -1.07587,-7.364312 q 0,-0.24207 0.14524,-0.40883 0.15062,-0.166759 0.44111,-0.166759 0.29048,0 0.4411,0.166759 0.15062,0.16676 0.15062,0.40883 0,0.24207 -0.15062,0.40345 -0.15062,0.16138 -0.4411,0.16138 -0.29049,0 -0.44111,-0.16138 -0.14524,-0.16138 -0.14524,-0.40345 z" />
        <path
           id="path2207"
           style="font-style:normal;font-variant:normal;font-weight:normal;font-stretch:normal;font-size:11.01688099px;font-family:Roboto;-inkscape-font-specification:Roboto;fill:#ffffff"
           d="m 819.48715,-73.300396 q 0.53255,0 0.93062,-0.322761 0.39807,-0.32276 0.44111,-0.8069 h 0.94138 q -0.0269,0.500278 -0.34428,0.952142 -0.31738,0.451865 -0.84993,0.720832 -0.52718,0.268966 -1.1189,0.268966 -1.18884,0 -1.89353,-0.790762 -0.69931,-0.796142 -0.69931,-2.173252 v -0.166759 q 0,-0.849936 0.312,-1.511594 0.312,-0.661658 0.89297,-1.027453 0.58634,-0.365795 1.38249,-0.365795 0.97904,0 1.62456,0.586348 0.6509,0.586347 0.69393,1.522352 h -0.94138 q -0.043,-0.564831 -0.43035,-0.925246 -0.38193,-0.365795 -0.94676,-0.365795 -0.75849,0 -1.17808,0.548692 -0.41421,0.543313 -0.41421,1.576146 v 0.188277 q 0,1.005936 0.41421,1.549249 0.41421,0.543313 1.18346,0.543313 z" />
        <path
           id="path2209"
           style="font-weight:bold;font-size:11.01688099px;fill:#ffffff"
           d="m 829.29906,-76.334342 q 0,1.156557 -0.40883,2.02801 -0.40883,0.871452 -1.17269,1.344834 -0.75849,0.473381 -1.74291,0.473381 -0.97366,0 -1.73752,-0.468002 -0.76387,-0.468002 -1.18346,-1.334075 -0.41959,-0.871453 -0.42497,-2.001114 v -0.387312 q 0,-1.156557 0.41421,-2.033389 0.41959,-0.882211 1.17808,-1.350213 0.76386,-0.473382 1.7429,-0.473382 0.97904,0 1.73753,0.473382 0.76386,0.468002 1.17807,1.350213 0.41959,0.876832 0.41959,2.02801 z m -1.63532,-0.355036 q 0,-1.231868 -0.4411,-1.872009 -0.44111,-0.640142 -1.25877,-0.640142 -0.81228,0 -1.25338,0.634762 -0.44111,0.629383 -0.44649,1.850492 v 0.381933 q 0,1.199592 0.44111,1.86125 0.4411,0.661659 1.26952,0.661659 0.81228,0 1.24801,-0.634762 0.43572,-0.640141 0.4411,-1.861251 z" />
        <path
           id="path2211"
           style="font-style:normal;font-variant:normal;font-weight:normal;font-stretch:normal;font-size:11.01688099px;font-family:Roboto;-inkscape-font-specification:Roboto;fill:#ffffff"
           d="m 834.35025,-72.595703 h -0.99517 v -5.820442 h 0.99517 z m -1.07586,-7.364312 q 0,-0.24207 0.14524,-0.40883 0.15062,-0.166759 0.4411,-0.166759 0.29049,0 0.44111,0.166759 0.15062,0.16676 0.15062,0.40883 0,0.24207 -0.15062,0.40345 -0.15062,0.16138 -0.44111,0.16138 -0.29048,0 -0.4411,-0.16138 -0.14524,-0.16138 -0.14524,-0.40345 z" />
        <path
           id="path2213"
           style="font-style:normal;font-variant:normal;font-weight:normal;font-stretch:normal;font-size:11.01688099px;font-family:Roboto;-inkscape-font-specification:Roboto;fill:#ffffff"
           d="m 836.87854,-78.416145 0.0323,0.731589 q 0.66704,-0.839176 1.7429,-0.839176 1.84512,0 1.86125,2.081803 v 3.846226 h -0.99517 v -3.851605 q -0.005,-0.629383 -0.29049,-0.930625 -0.27972,-0.301243 -0.87683,-0.301243 -0.48414,0 -0.84993,0.258208 -0.3658,0.258208 -0.57021,0.677796 v 4.147469 h -0.99518 v -5.820442 z" />
        <path
           id="path2215"
           style="font-style:normal;font-variant:normal;font-weight:normal;font-stretch:normal;font-size:11.01688099px;font-family:Roboto;-inkscape-font-specification:Roboto;fill:#ffffff"
           d="m 841.7845,-75.554338 q 0,-1.339455 0.63476,-2.151735 0.63476,-0.817659 1.66221,-0.817659 1.02208,0 1.61918,0.699314 v -3.033946 h 0.99518 v 8.262661 h -0.91449 l -0.0484,-0.624003 q -0.59711,0.731589 -1.66221,0.731589 -1.01132,0 -1.65146,-0.828417 -0.63476,-0.828418 -0.63476,-2.162494 z m 0.99517,0.112966 q 0,0.989798 0.40883,1.549249 0.40883,0.559451 1.12966,0.559451 0.94677,0 1.38249,-0.849936 v -2.67353 q -0.44648,-0.823038 -1.37173,-0.823038 -0.73159,0 -1.14042,0.56483 -0.40883,0.56483 -0.40883,1.672974 z" />
        <path
           id="path2217"
           style="font-style:normal;font-variant:normal;font-weight:normal;font-stretch:normal;font-size:11.01688099px;font-family:Roboto;-inkscape-font-specification:Roboto;fill:#ffffff"
           d="m 849.32633,-72.595703 h -0.99518 v -5.820442 h 0.99518 z m -1.07587,-7.364312 q 0,-0.24207 0.14524,-0.40883 0.15062,-0.166759 0.44111,-0.166759 0.29048,0 0.4411,0.166759 0.15062,0.16676 0.15062,0.40883 0,0.24207 -0.15062,0.40345 -0.15062,0.16138 -0.4411,0.16138 -0.29049,0 -0.44111,-0.16138 -0.14524,-0.16138 -0.14524,-0.40345 z" />
        <path
           id="path2219"
           style="font-style:normal;font-variant:normal;font-weight:normal;font-stretch:normal;font-size:11.01688099px;font-family:Roboto;-inkscape-font-specification:Roboto;fill:#ffffff"
           d="m 855.82995,-75.441372 q 0,1.328696 -0.60787,2.140976 -0.60786,0.812279 -1.64608,0.812279 -1.05972,0 -1.66759,-0.672417 v 2.802635 h -0.99518 v -8.058246 h 0.90911 l 0.0484,0.64552 q 0.60787,-0.753107 1.68912,-0.753107 1.04897,0 1.65683,0.790762 0.61325,0.790763 0.61325,2.200149 z m -0.99518,-0.112966 q 0,-0.984419 -0.41959,-1.554629 -0.41959,-0.570209 -1.15118,-0.570209 -0.90373,0 -1.35559,0.801521 v 2.781117 q 0.44648,0.796142 1.36635,0.796142 0.71545,0 1.13504,-0.564831 0.42497,-0.570209 0.42497,-1.689111 z" />
        <path
           id="path2221"
           style="font-style:normal;font-variant:normal;font-weight:normal;font-stretch:normal;font-size:11.01688099px;font-family:Roboto;-inkscape-font-specification:Roboto;fill:#ffffff"
           d="m 859.50403,-72.488117 q -1.18345,0 -1.9258,-0.774624 -0.74235,-0.780004 -0.74235,-2.081803 v -0.182898 q 0,-0.866073 0.32814,-1.543869 0.33352,-0.683176 0.92525,-1.065109 0.5971,-0.387312 1.29104,-0.387312 1.13504,0 1.76442,0.747728 0.62938,0.747727 0.62938,2.140976 v 0.414208 h -3.94305 q 0.0215,0.860694 0.50028,1.393249 0.48414,0.527175 1.22648,0.527175 0.52718,0 0.89297,-0.215174 0.3658,-0.215173 0.64015,-0.57021 l 0.60786,0.473382 q -0.73159,1.124281 -2.19477,1.124281 z m -0.12372,-5.217956 q -0.60249,0 -1.01132,0.441106 -0.40883,0.435726 -0.50566,1.226488 h 2.9156 v -0.07531 q -0.043,-0.758487 -0.40883,-1.172696 -0.36579,-0.419588 -0.98979,-0.419588 z" />
        <path
           id="path2223"
           style="font-style:normal;font-variant:normal;font-weight:normal;font-stretch:normal;font-size:11.01688099px;font-family:Roboto;-inkscape-font-specification:Roboto;fill:#ffffff"
           d="m 863.8613,-78.416145 0.0323,0.731589 q 0.66703,-0.839176 1.7429,-0.839176 1.84511,0 1.86125,2.081803 v 3.846226 h -0.99518 v -3.851605 q -0.005,-0.629383 -0.29048,-0.930625 -0.27973,-0.301243 -0.87683,-0.301243 -0.48414,0 -0.84994,0.258208 -0.36579,0.258208 -0.57021,0.677796 v 4.147469 h -0.99517 v -5.820442 z" />
        <path
           id="path2225"
           style="font-style:normal;font-variant:normal;font-weight:normal;font-stretch:normal;font-size:11.01688099px;font-family:Roboto;-inkscape-font-specification:Roboto;fill:#ffffff"
           d="m 868.76725,-75.554338 q 0,-1.339455 0.63476,-2.151735 0.63476,-0.817659 1.66221,-0.817659 1.02208,0 1.61918,0.699314 v -3.033946 h 0.99518 v 8.262661 h -0.91449 l -0.0484,-0.624003 q -0.59711,0.731589 -1.66221,0.731589 -1.01132,0 -1.65146,-0.828417 -0.63476,-0.828418 -0.63476,-2.162494 z m 0.99517,0.112966 q 0,0.989798 0.40883,1.549249 0.40883,0.559451 1.12966,0.559451 0.94677,0 1.38249,-0.849936 v -2.67353 q -0.44648,-0.823038 -1.37173,-0.823038 -0.73159,0 -1.14042,0.56483 -0.40883,0.56483 -0.40883,1.672974 z" />
        <path
           id="path2227"
           style="font-style:normal;font-variant:normal;font-weight:normal;font-stretch:normal;font-size:11.01688099px;font-family:Roboto;-inkscape-font-specification:Roboto;fill:#ffffff"
           d="m 877.64316,-72.488117 q -1.18345,0 -1.9258,-0.774624 -0.74235,-0.780004 -0.74235,-2.081803 v -0.182898 q 0,-0.866073 0.32814,-1.543869 0.33352,-0.683176 0.92525,-1.065109 0.5971,-0.387312 1.29104,-0.387312 1.13504,0 1.76442,0.747728 0.62938,0.747727 0.62938,2.140976 v 0.414208 h -3.94305 q 0.0215,0.860694 0.50028,1.393249 0.48414,0.527175 1.22648,0.527175 0.52718,0 0.89297,-0.215174 0.3658,-0.215173 0.64014,-0.57021 l 0.60787,0.473382 q -0.73159,1.124281 -2.19477,1.124281 z m -0.12372,-5.217956 q -0.60249,0 -1.01132,0.441106 -0.40883,0.435726 -0.50566,1.226488 h 2.9156 v -0.07531 q -0.043,-0.758487 -0.40883,-1.172696 -0.36579,-0.419588 -0.98979,-0.419588 z" />
        <path
           id="path2229"
           style="font-style:normal;font-variant:normal;font-weight:normal;font-stretch:normal;font-size:11.01688099px;font-family:Roboto;-inkscape-font-specification:Roboto;fill:#ffffff"
           d="m 882.00041,-78.416145 0.0323,0.731589 q 0.66704,-0.839176 1.74291,-0.839176 1.84511,0 1.86125,2.081803 v 3.846226 h -0.99518 v -3.851605 q -0.005,-0.629383 -0.29049,-0.930625 -0.27972,-0.301243 -0.87683,-0.301243 -0.48414,0 -0.84993,0.258208 -0.3658,0.258208 -0.57021,0.677796 v 4.147469 h -0.99518 v -5.820442 z" />
        <path
           id="path2231"
           style="font-style:normal;font-variant:normal;font-weight:normal;font-stretch:normal;font-size:11.01688099px;font-family:Roboto;-inkscape-font-specification:Roboto;fill:#ffffff"
           d="m 888.49866,-79.825532 v 1.409387 h 1.08663 v 0.769245 h -1.08663 v 3.609534 q 0,0.349657 0.14524,0.527175 0.14524,0.172139 0.4949,0.172139 0.17214,0 0.47338,-0.06455 v 0.806901 q -0.39269,0.107586 -0.76386,0.107586 -0.66704,0 -1.00594,-0.40345 -0.3389,-0.40345 -0.3389,-1.145799 V -77.6469 h -1.05973 v -0.769245 h 1.05973 v -1.409387 z" />
        <path
           id="path2233"
           style="font-style:normal;font-variant:normal;font-weight:normal;font-stretch:normal;font-size:11.01688099px;font-family:Roboto;-inkscape-font-specification:Roboto;fill:#ffffff"
           d="m 893.15717,-72.488117 q -1.18346,0 -1.9258,-0.774624 -0.74235,-0.780004 -0.74235,-2.081803 v -0.182898 q 0,-0.866073 0.32814,-1.543869 0.33352,-0.683176 0.92524,-1.065109 0.59711,-0.387312 1.29104,-0.387312 1.13504,0 1.76443,0.747728 0.62938,0.747727 0.62938,2.140976 v 0.414208 h -3.94306 q 0.0215,0.860694 0.50028,1.393249 0.48414,0.527175 1.22649,0.527175 0.52718,0 0.89297,-0.215174 0.3658,-0.215173 0.64014,-0.57021 l 0.60787,0.473382 q -0.73159,1.124281 -2.19477,1.124281 z m -0.12373,-5.217956 q -0.60248,0 -1.01131,0.441106 -0.40883,0.435726 -0.50566,1.226488 h 2.9156 v -0.07531 q -0.043,-0.758487 -0.40883,-1.172696 -0.36579,-0.419588 -0.9898,-0.419588 z" />
        <path
           id="path2235"
           style="font-style:normal;font-variant:normal;font-weight:normal;font-stretch:normal;font-size:11.01688099px;font-family:Roboto;-inkscape-font-specification:Roboto;fill:#ffffff"
           d="m 902.69473,-74.139573 q 0,-0.40345 -0.30662,-0.624003 -0.30124,-0.225932 -1.05973,-0.387312 -0.75311,-0.16138 -1.19959,-0.387312 -0.44111,-0.225933 -0.65628,-0.537934 -0.20979,-0.312002 -0.20979,-0.742348 0,-0.715452 0.60248,-1.210351 0.60787,-0.494899 1.54925,-0.494899 0.9898,0 1.60304,0.511037 0.61863,0.511037 0.61863,1.307179 h -1.00056 q 0,-0.40883 -0.34966,-0.704694 -0.34428,-0.295863 -0.87145,-0.295863 -0.54331,0 -0.84994,0.236691 -0.30662,0.236691 -0.30662,0.618623 0,0.360416 0.28511,0.543313 0.2851,0.182898 1.02745,0.349657 0.74773,0.16676 1.21035,0.398071 0.46262,0.231312 0.68318,0.559451 0.22593,0.32276 0.22593,0.790763 0,0.780003 -0.624,1.253385 -0.62401,0.468002 -1.61918,0.468002 -0.69932,0 -1.23725,-0.247449 -0.53794,-0.24745 -0.84456,-0.688555 -0.30124,-0.446485 -0.30124,-0.962901 h 0.99518 q 0.0269,0.500278 0.39807,0.796141 0.37655,0.290485 0.9898,0.290485 0.56483,0 0.90372,-0.225933 0.34428,-0.231311 0.34428,-0.613244 z" />
        <path
           id="path2237"
           style="font-style:normal;font-variant:normal;font-weight:normal;font-stretch:normal;font-size:11.01688099px;font-family:Roboto;-inkscape-font-specification:Roboto;fill:#ffffff"
           d="m 908.57972,-73.171292 q -0.58097,0.683175 -1.70525,0.683175 -0.93063,0 -1.42015,-0.537933 -0.48414,-0.543313 -0.48951,-1.603043 v -3.787052 h 0.99517 v 3.760156 q 0,1.323317 1.07587,1.323317 1.14042,0 1.51697,-0.849936 v -4.233537 h 0.99518 v 5.820442 h -0.94676 z" />
        <path
           id="path2239"
           style="font-style:normal;font-variant:normal;font-weight:normal;font-stretch:normal;font-size:11.01688099px;font-family:Roboto;-inkscape-font-specification:Roboto;fill:#ffffff"
           d="m 912.13546,-72.595703 h -0.99518 v -8.262661 h 0.99518 z" />
        <path
           id="path2241"
           style="font-style:normal;font-variant:normal;font-weight:normal;font-stretch:normal;font-size:11.01688099px;font-family:Roboto;-inkscape-font-specification:Roboto;fill:#ffffff"
           d="m 914.80361,-72.595703 h -0.99518 v -8.262661 h 0.99518 z" />
        <path
           id="path2243"
           style="font-style:normal;font-variant:normal;font-weight:normal;font-stretch:normal;font-size:11.01688099px;font-family:Roboto;-inkscape-font-specification:Roboto;fill:#ffffff"
           d="m 919.98391,-72.595703 q -0.0861,-0.172139 -0.13986,-0.613245 -0.69394,0.720831 -1.65684,0.720831 -0.86069,0 -1.41476,-0.48414 -0.5487,-0.48952 -0.5487,-1.237247 0,-0.909108 0.68856,-1.409386 0.69393,-0.505658 1.94732,-0.505658 h 0.96828 v -0.457244 q 0,-0.521795 -0.312,-0.828418 -0.312,-0.312001 -0.91987,-0.312001 -0.53255,0 -0.89297,0.268967 -0.36041,0.268967 -0.36041,0.6509 h -1.00056 q 0,-0.435727 0.30662,-0.839177 0.312,-0.40883 0.83918,-0.64552 0.53255,-0.236691 1.16731,-0.236691 1.00594,0 1.57615,0.505657 0.57021,0.500279 0.59173,1.38249 v 2.678909 q 0,0.801522 0.20441,1.274903 v 0.08607 z m -1.65146,-0.758487 q 0.46801,0 0.88759,-0.24207 0.41959,-0.24207 0.60787,-0.629382 v -1.194213 h -0.78001 q -1.82897,0 -1.82897,1.070488 0,0.468002 0.312,0.73159 0.312,0.263587 0.80152,0.263587 z" />
        <path
           id="path2245"
           style="font-style:normal;font-variant:normal;font-weight:normal;font-stretch:normal;font-size:11.01688099px;font-family:Roboto;-inkscape-font-specification:Roboto;fill:#ffffff"
           d="m 927.46118,-73.300396 q 0.53256,0 0.93063,-0.322761 0.39807,-0.32276 0.4411,-0.8069 h 0.94139 q -0.0269,0.500278 -0.34428,0.952142 -0.31738,0.451865 -0.84994,0.720832 -0.52717,0.268966 -1.1189,0.268966 -1.18883,0 -1.89352,-0.790762 -0.69932,-0.796142 -0.69932,-2.173252 v -0.166759 q 0,-0.849936 0.312,-1.511594 0.31201,-0.661658 0.89297,-1.027453 0.58635,-0.365795 1.38249,-0.365795 0.97904,0 1.62456,0.586348 0.6509,0.586347 0.69394,1.522352 h -0.94139 q -0.043,-0.564831 -0.43034,-0.925246 -0.38194,-0.365795 -0.94677,-0.365795 -0.75848,0 -1.17807,0.548692 -0.41421,0.543313 -0.41421,1.576146 v 0.188277 q 0,1.005936 0.41421,1.549249 0.41421,0.543313 1.18345,0.543313 z" />
        <path
           id="path2247"
           style="font-style:normal;font-variant:normal;font-weight:normal;font-stretch:normal;font-size:11.01688099px;font-family:Roboto;-inkscape-font-specification:Roboto;fill:#ffffff"
           d="m 934.48661,-72.595703 q -0.0861,-0.172139 -0.13986,-0.613245 -0.69394,0.720831 -1.65684,0.720831 -0.86069,0 -1.41476,-0.48414 -0.5487,-0.48952 -0.5487,-1.237247 0,-0.909108 0.68856,-1.409386 0.69393,-0.505658 1.94732,-0.505658 h 0.96828 v -0.457244 q 0,-0.521795 -0.312,-0.828418 -0.312,-0.312001 -0.91987,-0.312001 -0.53255,0 -0.89297,0.268967 -0.36041,0.268967 -0.36041,0.6509 h -1.00056 q 0,-0.435727 0.30662,-0.839177 0.312,-0.40883 0.83918,-0.64552 0.53255,-0.236691 1.16731,-0.236691 1.00594,0 1.57615,0.505657 0.57021,0.500279 0.59173,1.38249 v 2.678909 q 0,0.801522 0.20441,1.274903 v 0.08607 z m -1.65146,-0.758487 q 0.46801,0 0.88759,-0.24207 0.41959,-0.24207 0.60787,-0.629382 v -1.194213 h -0.78 q -1.82898,0 -1.82898,1.070488 0,0.468002 0.312,0.73159 0.312,0.263587 0.80152,0.263587 z" />
        <path
           id="path2249"
           style="font-style:normal;font-variant:normal;font-weight:normal;font-stretch:normal;font-size:11.01688099px;font-family:Roboto;-inkscape-font-specification:Roboto;fill:#ffffff"
           d="m 940.28552,-74.139573 q 0,-0.40345 -0.30662,-0.624003 -0.30124,-0.225932 -1.05973,-0.387312 -0.75311,-0.16138 -1.19959,-0.387312 -0.44111,-0.225933 -0.65628,-0.537934 -0.20979,-0.312002 -0.20979,-0.742348 0,-0.715452 0.60248,-1.210351 0.60787,-0.494899 1.54925,-0.494899 0.9898,0 1.60304,0.511037 0.61863,0.511037 0.61863,1.307179 h -1.00056 q 0,-0.40883 -0.34966,-0.704694 -0.34428,-0.295863 -0.87145,-0.295863 -0.54331,0 -0.84994,0.236691 -0.30662,0.236691 -0.30662,0.618623 0,0.360416 0.28511,0.543313 0.2851,0.182898 1.02745,0.349657 0.74773,0.16676 1.21035,0.398071 0.46262,0.231312 0.68318,0.559451 0.22593,0.32276 0.22593,0.790763 0,0.780003 -0.624,1.253385 -0.62401,0.468002 -1.61918,0.468002 -0.69932,0 -1.23725,-0.247449 -0.53794,-0.24745 -0.84456,-0.688555 -0.30124,-0.446485 -0.30124,-0.962901 h 0.99518 q 0.0269,0.500278 0.39807,0.796141 0.37655,0.290485 0.9898,0.290485 0.56483,0 0.90372,-0.225933 0.34428,-0.231311 0.34428,-0.613244 z" />
        <path
           id="path2251"
           style="font-style:normal;font-variant:normal;font-weight:normal;font-stretch:normal;font-size:11.01688099px;font-family:Roboto;-inkscape-font-specification:Roboto;fill:#ffffff"
           d="m 946.17052,-72.595703 q -0.0861,-0.172139 -0.13986,-0.613245 -0.69393,0.720831 -1.65683,0.720831 -0.8607,0 -1.41477,-0.48414 -0.54869,-0.48952 -0.54869,-1.237247 0,-0.909108 0.68855,-1.409386 0.69394,-0.505658 1.94732,-0.505658 h 0.96828 v -0.457244 q 0,-0.521795 -0.312,-0.828418 -0.312,-0.312001 -0.91986,-0.312001 -0.53256,0 -0.89297,0.268967 -0.36042,0.268967 -0.36042,0.6509 h -1.00056 q 0,-0.435727 0.30663,-0.839177 0.312,-0.40883 0.83917,-0.64552 0.53256,-0.236691 1.16732,-0.236691 1.00593,0 1.57614,0.505657 0.57021,0.500279 0.59173,1.38249 v 2.678909 q 0,0.801522 0.20442,1.274903 v 0.08607 z m -1.65145,-0.758487 q 0.468,0 0.88759,-0.24207 0.41959,-0.24207 0.60786,-0.629382 v -1.194213 h -0.78 q -1.82897,0 -1.82897,1.070488 0,0.468002 0.312,0.73159 0.312,0.263587 0.80152,0.263587 z" />
        <path
           id="path2253"
           style="font-style:normal;font-variant:normal;font-weight:normal;font-stretch:normal;font-size:11.01688099px;font-family:Roboto;-inkscape-font-specification:Roboto;fill:#ffffff"
           d="m 953.72849,-72.488117 q -1.18346,0 -1.9258,-0.774624 -0.74235,-0.780004 -0.74235,-2.081803 v -0.182898 q 0,-0.866073 0.32814,-1.543869 0.33352,-0.683176 0.92524,-1.065109 0.59711,-0.387312 1.29104,-0.387312 1.13504,0 1.76443,0.747728 0.62938,0.747727 0.62938,2.140976 v 0.414208 h -3.94306 q 0.0215,0.860694 0.50028,1.393249 0.48414,0.527175 1.22649,0.527175 0.52718,0 0.89297,-0.215174 0.3658,-0.215173 0.64014,-0.57021 l 0.60787,0.473382 q -0.73159,1.124281 -2.19477,1.124281 z m -0.12373,-5.217956 q -0.60248,0 -1.01131,0.441106 -0.40883,0.435726 -0.50566,1.226488 h 2.9156 v -0.07531 q -0.043,-0.758487 -0.40883,-1.172696 -0.36579,-0.419588 -0.9898,-0.419588 z" />
        <path
           id="path2255"
           style="font-style:normal;font-variant:normal;font-weight:normal;font-stretch:normal;font-size:11.01688099px;font-family:Roboto;-inkscape-font-specification:Roboto;fill:#ffffff"
           d="m 963.26605,-74.139573 q 0,-0.40345 -0.30662,-0.624003 -0.30124,-0.225932 -1.05973,-0.387312 -0.75311,-0.16138 -1.19959,-0.387312 -0.44111,-0.225933 -0.65628,-0.537934 -0.2098,-0.312002 -0.2098,-0.742348 0,-0.715452 0.60249,-1.210351 0.60787,-0.494899 1.54925,-0.494899 0.9898,0 1.60304,0.511037 0.61863,0.511037 0.61863,1.307179 h -1.00056 q 0,-0.40883 -0.34966,-0.704694 -0.34428,-0.295863 -0.87145,-0.295863 -0.54331,0 -0.84994,0.236691 -0.30662,0.236691 -0.30662,0.618623 0,0.360416 0.28511,0.543313 0.2851,0.182898 1.02745,0.349657 0.74773,0.16676 1.21035,0.398071 0.46262,0.231312 0.68318,0.559451 0.22593,0.32276 0.22593,0.790763 0,0.780003 -0.624,1.253385 -0.62401,0.468002 -1.61918,0.468002 -0.69932,0 -1.23725,-0.247449 -0.53794,-0.24745 -0.84456,-0.688555 -0.30124,-0.446485 -0.30124,-0.962901 h 0.99518 q 0.0269,0.500278 0.39807,0.796141 0.37655,0.290485 0.9898,0.290485 0.56483,0 0.90372,-0.225933 0.34428,-0.231311 0.34428,-0.613244 z" />
        <path
           id="path2257"
           style="font-style:normal;font-variant:normal;font-weight:normal;font-stretch:normal;font-size:11.01688099px;font-family:Roboto;-inkscape-font-specification:Roboto;fill:#ffffff"
           d="m 969.15105,-73.171292 q -0.58096,0.683175 -1.70525,0.683175 -0.93062,0 -1.42014,-0.537933 -0.48414,-0.543313 -0.48952,-1.603043 v -3.787052 h 0.99518 v 3.760156 q 0,1.323317 1.07586,1.323317 1.14042,0 1.51698,-0.849936 v -4.233537 h 0.99517 v 5.820442 h -0.94676 z" />
        <path
           id="path2259"
           style="font-style:normal;font-variant:normal;font-weight:normal;font-stretch:normal;font-size:11.01688099px;font-family:Roboto;-inkscape-font-specification:Roboto;fill:#ffffff"
           d="m 972.70679,-72.595703 h -0.99518 v -8.262661 h 0.99518 z" />
        <path
           id="path2261"
           style="font-style:normal;font-variant:normal;font-weight:normal;font-stretch:normal;font-size:11.01688099px;font-family:Roboto;-inkscape-font-specification:Roboto;fill:#ffffff"
           d="m 975.37494,-72.595703 h -0.99518 v -8.262661 h 0.99518 z" />
        <path
           id="path2263"
           style="font-style:normal;font-variant:normal;font-weight:normal;font-stretch:normal;font-size:11.01688099px;font-family:Roboto;-inkscape-font-specification:Roboto;fill:#ffffff"
           d="m 980.55524,-72.595703 q -0.0861,-0.172139 -0.13986,-0.613245 -0.69393,0.720831 -1.65683,0.720831 -0.8607,0 -1.41477,-0.48414 -0.54869,-0.48952 -0.54869,-1.237247 0,-0.909108 0.68855,-1.409386 0.69394,-0.505658 1.94732,-0.505658 h 0.96828 v -0.457244 q 0,-0.521795 -0.312,-0.828418 -0.312,-0.312001 -0.91986,-0.312001 -0.53256,0 -0.89297,0.268967 -0.36042,0.268967 -0.36042,0.6509 h -1.00056 q 0,-0.435727 0.30663,-0.839177 0.312,-0.40883 0.83917,-0.64552 0.53256,-0.236691 1.16732,-0.236691 1.00593,0 1.57614,0.505657 0.57021,0.500279 0.59173,1.38249 v 2.678909 q 0,0.801522 0.20442,1.274903 v 0.08607 z m -1.65145,-0.758487 q 0.468,0 0.88759,-0.24207 0.41959,-0.24207 0.60786,-0.629382 v -1.194213 h -0.78 q -1.82897,0 -1.82897,1.070488 0,0.468002 0.312,0.73159 0.312,0.263587 0.80152,0.263587 z" />
        <path
           id="path2265"
           style="font-style:normal;font-variant:normal;font-weight:normal;font-stretch:normal;font-size:11.01688099px;font-family:Roboto;-inkscape-font-specification:Roboto;fill:#ffffff"
           d="m 988.51128,-77.523176 q -0.22593,-0.03765 -0.48952,-0.03765 -0.97904,0 -1.3287,0.833797 v 4.131331 h -0.99517 v -5.820442 h 0.96828 l 0.0161,0.672417 q 0.48952,-0.780004 1.38787,-0.780004 0.29049,0 0.44111,0.07531 z" />
        <path
           id="path2267"
           style="font-style:normal;font-variant:normal;font-weight:normal;font-stretch:normal;font-size:11.01688099px;font-family:Roboto;-inkscape-font-specification:Roboto;fill:#ffffff"
           d="m 991.72812,-72.488117 q -1.18345,0 -1.9258,-0.774624 -0.74235,-0.780004 -0.74235,-2.081803 v -0.182898 q 0,-0.866073 0.32814,-1.543869 0.33352,-0.683176 0.92525,-1.065109 0.5971,-0.387312 1.29104,-0.387312 1.13504,0 1.76442,0.747728 0.62938,0.747727 0.62938,2.140976 v 0.414208 h -3.94305 q 0.0215,0.860694 0.50028,1.393249 0.48414,0.527175 1.22648,0.527175 0.52718,0 0.89297,-0.215174 0.3658,-0.215173 0.64015,-0.57021 l 0.60786,0.473382 q -0.73159,1.124281 -2.19477,1.124281 z m -0.12372,-5.217956 q -0.60249,0 -1.01132,0.441106 -0.40883,0.435726 -0.50566,1.226488 h 2.9156 v -0.07531 q -0.043,-0.758487 -0.40883,-1.172696 -0.36579,-0.419588 -0.98979,-0.419588 z" />
        <path
           id="path2269"
           style="font-style:normal;font-variant:normal;font-weight:normal;font-stretch:normal;font-size:11.01688099px;font-family:Roboto;-inkscape-font-specification:Roboto;fill:#ffffff"
           d="m 998.53299,-74.139573 q 0,-0.40345 -0.30662,-0.624003 -0.30125,-0.225932 -1.05973,-0.387312 -0.75311,-0.16138 -1.19959,-0.387312 -0.44111,-0.225933 -0.65628,-0.537934 -0.2098,-0.312002 -0.2098,-0.742348 0,-0.715452 0.60249,-1.210351 0.60786,-0.494899 1.54925,-0.494899 0.98979,0 1.60304,0.511037 0.61862,0.511037 0.61862,1.307179 h -1.00055 q 0,-0.40883 -0.34966,-0.704694 -0.34428,-0.295863 -0.87145,-0.295863 -0.54332,0 -0.84994,0.236691 -0.30662,0.236691 -0.30662,0.618623 0,0.360416 0.2851,0.543313 0.28511,0.182898 1.02746,0.349657 0.74773,0.16676 1.21035,0.398071 0.46262,0.231312 0.68317,0.559451 0.22594,0.32276 0.22594,0.790763 0,0.780003 -0.62401,1.253385 -0.624,0.468002 -1.61918,0.468002 -0.69931,0 -1.23724,-0.247449 -0.53794,-0.24745 -0.84456,-0.688555 -0.30124,-0.446485 -0.30124,-0.962901 h 0.99517 q 0.0269,0.500278 0.39807,0.796141 0.37656,0.290485 0.9898,0.290485 0.56483,0 0.90373,-0.225933 0.34428,-0.231311 0.34428,-0.613244 z" />
        <path
           id="path2271"
           style="font-style:normal;font-variant:normal;font-weight:normal;font-stretch:normal;font-size:11.01688099px;font-family:Roboto;-inkscape-font-specification:Roboto;fill:#ffffff"
           d="m 1001.9058,-72.595703 h -0.9952 v -5.820442 h 0.9952 z m -1.0758,-7.364312 q 0,-0.24207 0.1452,-0.40883 0.1506,-0.166759 0.4411,-0.166759 0.2905,0 0.4411,0.166759 0.1506,0.16676 0.1506,0.40883 0,0.24207 -0.1506,0.40345 -0.1506,0.16138 -0.4411,0.16138 -0.2905,0 -0.4411,-0.16138 -0.1452,-0.16138 -0.1452,-0.40345 z" />
        <path
           id="path2273"
           style="font-style:normal;font-variant:normal;font-weight:normal;font-stretch:normal;font-size:11.01688099px;font-family:Roboto;-inkscape-font-specification:Roboto;fill:#ffffff"
           d="m 1003.2507,-75.554338 q 0,-1.339455 0.6347,-2.151735 0.6348,-0.817659 1.6622,-0.817659 1.0221,0 1.6192,0.699314 v -3.033946 h 0.9952 v 8.262661 h -0.9145 l -0.048,-0.624003 q -0.5971,0.731589 -1.6622,0.731589 -1.0113,0 -1.6515,-0.828417 -0.6347,-0.828418 -0.6347,-2.162494 z m 0.9951,0.112966 q 0,0.989798 0.4089,1.549249 0.4088,0.559451 1.1296,0.559451 0.9468,0 1.3825,-0.849936 v -2.67353 q -0.4465,-0.823038 -1.3717,-0.823038 -0.7316,0 -1.1404,0.56483 -0.4089,0.56483 -0.4089,1.672974 z" />
        <path
           id="path2275"
           style="font-style:normal;font-variant:normal;font-weight:normal;font-stretch:normal;font-size:11.01688099px;font-family:Roboto;-inkscape-font-specification:Roboto;fill:#ffffff"
           d="m 1012.1266,-72.488117 q -1.1835,0 -1.9258,-0.774624 -0.7424,-0.780004 -0.7424,-2.081803 v -0.182898 q 0,-0.866073 0.3281,-1.543869 0.3336,-0.683176 0.9253,-1.065109 0.5971,-0.387312 1.291,-0.387312 1.1351,0 1.7645,0.747728 0.6293,0.747727 0.6293,2.140976 v 0.414208 h -3.943 q 0.021,0.860694 0.5003,1.393249 0.4841,0.527175 1.2265,0.527175 0.5271,0 0.8929,-0.215174 0.3658,-0.215173 0.6402,-0.57021 l 0.6078,0.473382 q -0.7316,1.124281 -2.1947,1.124281 z m -0.1238,-5.217956 q -0.6025,0 -1.0113,0.441106 -0.4088,0.435726 -0.5056,1.226488 h 2.9156 v -0.07531 q -0.043,-0.758487 -0.4089,-1.172696 -0.3658,-0.419588 -0.9898,-0.419588 z" />
        <path
           id="path2277"
           style="font-style:normal;font-variant:normal;font-weight:normal;font-stretch:normal;font-size:11.01688099px;font-family:Roboto;-inkscape-font-specification:Roboto;fill:#ffffff"
           d="m 1016.4838,-78.416145 0.032,0.731589 q 0.667,-0.839176 1.7429,-0.839176 1.8451,0 1.8613,2.081803 v 3.846226 h -0.9952 v -3.851605 q -0.01,-0.629383 -0.2905,-0.930625 -0.2797,-0.301243 -0.8768,-0.301243 -0.4842,0 -0.85,0.258208 -0.3658,0.258208 -0.5702,0.677796 v 4.147469 h -0.9952 v -5.820442 z" />
        <path
           id="path2279"
           style="font-style:normal;font-variant:normal;font-weight:normal;font-stretch:normal;font-size:11.01688099px;font-family:Roboto;-inkscape-font-specification:Roboto;fill:#ffffff"
           d="m 1022.5679,-73.407983 h 3.4051 v 0.81228 h -4.6209 v -0.73159 l 3.2115,-4.265814 h -3.1631 v -0.823038 h 4.4111 v 0.704693 z" />
        <path
           inkscape:connector-curvature="0"
           id="path2283"
           style="font-style:normal;font-variant:normal;font-weight:normal;font-stretch:normal;font-size:11.01688099px;font-family:Roboto;-inkscape-font-specification:Roboto;fill:#ffffff"
           d="m 1030.4868,-72.595703 q -0.086,-0.172139 -0.1399,-0.613245 -0.6939,0.720831 -1.6568,0.720831 -0.8607,0 -1.4148,-0.48414 -0.5487,-0.48952 -0.5487,-1.237247 0,-0.909108 0.6886,-1.409386 0.6939,-0.505658 1.9473,-0.505658 h 0.9683 v -0.457244 q 0,-0.521795 -0.312,-0.828418 -0.312,-0.312001 -0.9199,-0.312001 -0.5325,0 -0.8929,0.268967 -0.3605,0.268967 -0.3605,0.6509 h -1.0005 q 0,-0.435727 0.3066,-0.839177 0.312,-0.40883 0.8392,-0.64552 0.5325,-0.236691 1.1673,-0.236691 1.0059,0 1.5762,0.505657 0.5702,0.500279 0.5917,1.38249 v 2.678909 q 0,0.801522 0.2044,1.274903 v 0.08607 z m -1.6515,-0.758487 q 0.468,0 0.8876,-0.24207 0.4196,-0.24207 0.6079,-0.629382 v -1.194213 h -0.78 q -1.829,0 -1.829,1.070488 0,0.468002 0.312,0.73159 0.312,0.263587 0.8015,0.263587 z" />
      </g>
    </g>
  </g>
</svg>
