<?xml version="1.0" encoding="UTF-8" standalone="no"?>
<!-- Created with Inkscape (http://www.inkscape.org/) -->

<svg
   xmlns:dc="http://purl.org/dc/elements/1.1/"
   xmlns:cc="http://creativecommons.org/ns#"
   xmlns:rdf="http://www.w3.org/1999/02/22-rdf-syntax-ns#"
   xmlns:svg="http://www.w3.org/2000/svg"
   xmlns="http://www.w3.org/2000/svg"
   xmlns:sodipodi="http://sodipodi.sourceforge.net/DTD/sodipodi-0.dtd"
   xmlns:inkscape="http://www.inkscape.org/namespaces/inkscape"
   version="1.1"
   id="svg2"
   width="1099.4304"
   height="365.45157"
   viewBox="0 0 1099.4304 365.45157"
   sodipodi:docname="ocio.svg"
   inkscape:version="0.92.2 5c3e80d, 2017-08-06">
  <metadata
     id="metadata8">
    <rdf:RDF>
      <cc:Work
         rdf:about="">
        <dc:format>image/svg+xml</dc:format>
        <dc:type
           rdf:resource="http://purl.org/dc/dcmitype/StillImage" />
        <dc:title></dc:title>
      </cc:Work>
    </rdf:RDF>
  </metadata>
  <defs
     id="defs6" />
  <sodipodi:namedview
     pagecolor="#ffffff"
     bordercolor="#666666"
     borderopacity="1"
     objecttolerance="10"
     gridtolerance="10"
     guidetolerance="10"
     inkscape:pageopacity="0"
     inkscape:pageshadow="2"
     inkscape:window-width="1440"
     inkscape:window-height="805"
     id="namedview4"
     showgrid="false"
     inkscape:zoom="0.55463688"
     inkscape:cx="552.41971"
     inkscape:cy="295.37502"
     inkscape:window-x="0"
     inkscape:window-y="1"
     inkscape:window-maximized="1"
     inkscape:current-layer="svg2"
     fit-margin-top="0"
     fit-margin-left="0"
     fit-margin-right="0"
     fit-margin-bottom="0" />
  <path
     style="fill:#000000"
     d="m 159.36836,364.43297 c -9.80108,-0.6696 -29.98443,-4.3863 -31.9864,-5.8903 -0.55748,-0.4187 -6.4136,-2.4774 -13.0136,-4.5748 -6.6,-2.0974 -12.675,-4.3588 -13.5,-5.0254 -0.825,-0.6665 -4.650001,-2.9293 -8.500001,-5.0284 -3.85,-2.0991 -8.61181,-5.1994 -10.5818,-6.8895 -5.06156,-4.3425 -17.90233,-13.5729 -18.88174,-13.5729 -0.4508,0 -1.11662,-1.1833 -1.47959,-2.6295 -0.36298,-1.4462 -2.32426,-4.3448 -4.35841,-6.4413 -10.69345,-11.0215 -13.22848,-15.7083 -10.63624,-19.6645 1.21508,-1.8545 1.87595,-2.1006 3.42063,-1.2739 1.05302,0.5636 2.5767,1.97 3.38595,3.1253 0.80925,1.1554 1.95733,1.8004 2.55128,1.4333 1.57811,-0.9754 1.31874,-2.5494 -0.42008,-2.5494 -0.825,0 -1.5,-0.6233 -1.5,-1.385 0,-0.7618 -1.16787,-2.1502 -2.59526,-3.0855 -2.21366,-1.4504 -2.50322,-2.191 -1.96931,-5.037 0.40458,-2.1566 0.19391,-3.6036 -0.59573,-4.0916 -0.67192,-0.4153 -1.38751,-0.2575 -1.59022,0.3506 -0.2027,0.6081 -1.62798,-0.2122 -3.16728,-1.8229 -1.5393,-1.6108 -3.31251,-2.9286 -3.94046,-2.9286 -1.63128,0 -1.40946,-1.5329 0.44446,-3.0716 1.02758,-0.8528 1.40064,-2.2442 1.0593,-3.9509 -0.36761,-1.8381 0.0598,-3.137 1.41379,-4.2963 2.05163,-1.7566 2.73541,-0.8759 0.81271,1.0468 -0.83734,0.8373 -0.33443,2.7422 1.95163,7.3923 2.9806,6.0629 3.11125,6.1812 4.06266,3.6788 2.08525,-5.4847 2.33833,-9.6425 0.77738,-12.7715 -0.84597,-1.6958 -1.34411,-4.0832 -1.10698,-5.3054 0.54242,-2.7958 -2.17463,-11.1603 -4.16057,-12.8084 -0.82185,-0.6821 -2.6702,-3.6417 -4.10746,-6.577 -1.43725,-2.9353 -3.16702,-5.3368 -3.84393,-5.3368 -0.67692,0 -1.48977,-0.675 -1.80636,-1.5 -0.86458,-2.2531 -3.31269,-1.8041 -4.08904,0.75 -0.40691,1.3386 -0.89098,1.7496 -1.19511,1.0146 -0.28114,-0.6795 0.45457,-2.5917 1.63491,-4.2494 1.18035,-1.6576 1.90833,-3.8017 1.61774,-4.7645 -0.29058,-0.9629 -0.72206,-2.8757 -0.95884,-4.2507 -1.77508,-10.3081 -3.11778,-11.9519 -9.79104,-11.9864 -2.95673,-0.015 -4.69583,2.7273 -2.30998,3.6428 1.15642,0.4437 1.40683,1.7267 1.06186,5.4406 -0.44299,4.7689 0.24353,7.9554 3.20216,14.8628 0.81507,1.9029 1.66747,5.5029 1.89421,8 0.65738,7.2395 1.23037,9.0402 2.87667,9.0402 0.87144,0 1.46628,0.7621 1.36579,1.75 -0.34495,3.3911 0.0722,4.25 2.06412,4.25 1.78706,0 1.94036,0.4469 1.37219,4 -0.4286,2.6803 -0.26753,4 0.48818,4 0.69913,0 1.12781,2.0716 1.12781,5.4503 0,3.6323 0.46826,5.717 1.40379,6.25 0.77209,0.4398 1.55959,1.9247 1.75,3.2997 0.2389,1.725 1.06735,2.6021 2.67266,2.8295 1.73358,0.2456 2.1492,0.7553 1.6309,2 -0.82559,1.9827 -0.81819,2.5309 0.10008,7.4205 0.57998,3.0882 0.41648,3.75 -0.92659,3.75 -0.89696,0 -1.63361,-0.5625 -1.637,-1.25 -0.003,-0.6875 -0.70449,-2.5893 -1.558,-4.2261 -0.85351,-1.6369 -1.6341,-4.3369 -1.73466,-6 -0.10055,-1.6632 -1.19945,-4.0149 -2.442,-5.2262 -1.24255,-1.2112 -2.25918,-3.1298 -2.25918,-4.2635 0,-1.1338 -0.43247,-2.8428 -0.96105,-3.7978 -1.54258,-2.7871 -5.6984,-12.4319 -6.99605,-16.2364 -1.98979,-5.8337 -7.19333,-22.3042 -8.05623,-25.5 -1.28838,-4.7716 -6.01273,-21.6625 -7.1323203,-25.5 -0.561613,-1.925 -1.357943,-5.6767 -1.769623,-8.3371 -0.41168,-2.6604 -1.33182,-5.1976 -2.04474,-5.6382 -0.71292,-0.4406 -1.01559,-1.2552 -0.6726,-1.8102 0.93559,-1.5138 -2.3975,-15.4493 -4.18582,-17.5008 -1.31008001,-1.5028 -1.36288001,-2.3234 -0.33278001,-5.1721 0.67339001,-1.8622 1.18263001,-4.8834 1.13164001,-6.7138 -0.051,-1.8303 0.46101,-5.4769 1.13778,-8.1035 0.91024,-3.5327 0.93819,-5.0679 0.10738,-5.8987 -1.19357,-1.1936 0.84094,-6.3139 3.30815,-8.3256 0.67451,-0.55 1.5168,-2.249 1.87176,-3.7755 0.35495,-1.5265 1.533933,-3.664 2.6199433,-4.75 1.08601,-1.086 2.0431,-2.987 2.12687,-4.2245 0.0838,-1.2375 0.20168,-2.7902 0.26201,-3.4504 0.0603,-0.6602 2.01679,-2.8327 4.34769,-4.8279 2.33089,-1.9952 4.23799,-4.2816 4.23799,-5.081 0,-0.7994 0.7875,-1.7472 1.75,-2.1063 2.92401,-1.0906 4.74278,-4.5464 4.88643,-9.284405 0.20546,-6.7771 0.25971,-7 1.70351,-7 0.73697,0 1.95334,-1.8586 2.70305,-4.1303 1.54377,-4.6777 6.42104,-11.8697 8.04942,-11.8697 1.81939,0 7.90759,-6.328801 7.90759,-8.220101 0,-0.9789 0.45,-1.7799 1,-1.7799 0.55,0 1,-0.7281 1,-1.618 0,-0.8899 1.2375,-3.1079 2.75,-4.929 1.5125,-1.821 3.56039,-4.3554 4.55086,-5.632 1.22901,-1.584 1.96994,-1.9241 2.33333,-1.071 0.91925,2.1579 3.35873,1.3643 4.61061,-1.5 1.38821,-3.1762 6.34069,-9.8598 9.2552,-12.4903 3.63098,-3.2772 9.02093,-5.6754 10.5627,-4.6998 2.19525,1.3891 2.88639,1.1459 4.05913,-1.428 0.90773,-1.9922 2.05484,-2.4697 7.22856,-3.0088 4.636681,-0.4831 7.379711,-1.4662 11.149611,-3.9958 2.75,-1.8452 5.7875,-3.6271 6.75,-3.9598 0.9625,-0.3326 1.75,-1.0689 1.75,-1.6361 0,-0.5673 0.52707,-1.0314 1.17126,-1.0314 0.64419,0 1.95472,-0.709 2.91229,-1.5756 0.95757,-0.8666 2.343,-1.664 3.07874,-1.772 0.73574,-0.108 1.53254,-0.6364 1.77067,-1.1744 0.99536,-2.2484 4.82753,-4.178 8.56704,-4.3135 2.2,-0.08 5.575,-0.6448997 7.5,-1.2557997 5.28371,-1.6767 13.16165,-2.0617 16.2509,-0.7941 2.04888,0.8407 3.10113,0.8381 4.12326,-0.01 0.75479,-0.6264 2.10438,-0.858 2.99909,-0.5147 0.89859,0.3448 1.62675,0.1287 1.62675,-0.4827 0,-0.6089 1.2375,-1.0715 2.75,-1.0281 1.5125,0.043 2.1875,0.3059 1.5,0.5834 -2.31282,0.9332 -1.27545,2.2046 1.5,1.8384 1.5125,-0.1996 3.33906,-0.3939 4.05902,-0.4318 0.71996,-0.038 1.05092,-0.4865 0.73548,-0.9969 -0.76807,-1.2428 3.10444,-2.4092 4.69655,-1.4147 0.69242,0.4325 1.92162,0.8865 2.73155,1.0087 0.80994,0.1223 2.04752,1.0086 2.7502,1.9696 0.70267,0.9608997 2.0313,1.8577997 2.9525,1.9929997 0.92121,0.1352 2.06849,0.9491 2.5495,1.8086 1.04873,1.874 3.19967,2.1113 2.49514,0.2753 -0.35545,-0.9263 0.88205,-1.3473 4.41147,-1.5009 3.84318,-0.1672 5.8219,0.368 9.13705,2.4714 2.45286,1.5563 5.41531,2.5987 7.04777,2.48 1.60234,-0.1166 4.18554,0.7701 5.99299,2.0572 2.22501,1.5843 4.42729,2.2136 7.35079,2.1005 2.95852,-0.1145 4.66766,0.3839 5.86909,1.7114 1.19254,1.3178 2.51525,1.709 4.4617,1.3197 1.5358,-0.3071 3.06929,-0.064 3.44694,0.5474 0.37416,0.6054 1.44124,1.1027 2.37128,1.105 0.93004,0 3.88565,1.1176 6.56803,2.4785 2.68238,1.3609 6.50738,2.7637 8.5,3.1175 1.99262,0.3537 5.10253,1.5356 6.9109,2.6265 1.80837,1.0908 5.28738,2.9955 7.73113,4.2327 5.74327,2.9076 12.48092,8.4115 12.48092,10.1955 0,1.4124 4.84691,3.8315 5.78909,2.8893 0.28144,-0.2814 1.54755,0.606 2.81356,1.972 1.26602,1.3661 3.23746,2.4838 4.38099,2.4838 1.14352,0 2.33815,0.675 2.65473,1.5 0.31659,0.825 1.15432,1.5 1.86163,1.5 0.70731,0 1.54504,0.675 1.86163,1.5 0.31658,0.825 1.48972,1.5 2.60699,1.5 1.11726,0 2.03138,0.4729 2.03138,1.051 0,0.5781 1.4625,1.6638 3.25,2.4127 4.65914,1.952 12.75,12.003801 12.75,15.840001 0,0.933 0.56675,1.6963 1.25945,1.6963 0.6927,0 1.82152,0.9 2.50848,2 0.68696,1.1 1.67475,2 2.19509,2 1.42869,0 6.03698,4.9029 6.03698,6.423 0,0.7326 0.64825,1.8701 1.44056,2.5276 0.79231,0.6576 1.21179,1.7917 0.93219,2.5204 -0.2796,0.7286 1.52613,3.508205 4.01272,6.176905 2.4866,2.6686 4.80047,5.9771 5.14194,7.3521 0.34147,1.375 1.54959,3.4951 2.68471,4.7113 1.64812,1.7659 2.45619,2.0014 4.01152,1.169 1.07121,-0.5733 2.13136,-0.8587 2.35588,-0.6341 1.61911,1.6191 6.34267,25.3612 7.21279,36.2538 1.03968,13.0152 0.99957,42.6781 -0.0615,45.5 -0.31022,0.825 -0.8453,3.4965 -1.18908,5.9367 -0.34377,2.4401 -1.31883,6.0401 -2.16679,8 -0.84797,1.9598 -2.17922,5.041 -2.95833,6.8472 -0.77912,1.8062 -1.41658,4.0266 -1.41658,4.9343 0,1.6057 -3.79151,10.2803 -4.93104,11.2818 -1.08184,0.9507 -7.43973,14.5031 -7.21303,15.3751 0.12513,0.4814 -0.54367,1.7273 -1.48621,2.7688 -1.7571,1.9416 -5.17384,8.1388 -9.84309,17.8531 -1.45321,3.0234 -3.47331,6.3984 -4.48913,7.5 -1.01581,1.1016 -3.35598,4.5269 -5.20038,7.6116 -8.26577,13.8245 -34.76161,40.3234 -41.27444,41.2793 -0.88622,0.1301 -2.30088,1.221 -3.1437,2.4243 -0.84281,1.2033 -2.18187,2.1878 -2.97568,2.1878 -0.79382,0 -1.44846,0.3375 -1.45477,0.75 -0.006,0.4125 -1.91881,1.6487 -4.25,2.7472 -2.33119,1.0985 -5.11088,2.786 -6.17709,3.75 -1.82279,1.6481 -2.39747,1.8891 -5.1759,2.1702 -0.61296,0.062 -1.83281,0.7089 -2.71079,1.4375 -0.87797,0.7287 -3.52646,1.5672 -5.88553,1.8634 -2.35907,0.2963 -5.18922,1.3475 -6.28922,2.3362 -2.01449,1.8106 -17.92627,6.2762 -26.7623,7.5108 -2.61926,0.366 -5.02182,1.0854 -5.33902,1.5986 -0.35561,0.5754 -1.02186,0.5697 -1.73771,-0.015 -0.72937,-0.5956 -3.20561,-0.5987 -6.66097,-0.01 -3.025,0.517 -14.1625,0.9648 -24.75,0.9951 -10.5875,0.03 -19.25,0.39 -19.25,0.7991 0,1.4423 4.59186,2.8729 6.24736,1.9464 1.02216,-0.572 1.85931,-0.5178 2.27013,0.1469 0.35795,0.5792 1.55124,0.7673 2.65174,0.418 1.28698,-0.4085 2.77338,0.067 4.16585,1.332 1.1907,1.0819 2.83992,2.2139 3.66492,2.5155 1.94575,0.7112 -8.80242,0.5551 -21.5,-0.3125 z m -3.5,-3.9499 c 0,-1.3341 -0.48076,-1.7842 -1.49157,-1.3963 -0.82036,0.3148 -3.09608,-0.3743 -5.05716,-1.5314 -4.17382,-2.4626 -7.45127,-2.7282 -7.45127,-0.6037 0,0.999 0.99906,1.5 2.99153,1.5 1.90852,0 3.4437,0.724 4.24054,2 1.71305,2.743 6.76793,2.7664 6.76793,0.031 z m -21.64769,-2.7925 c 0.25869,-0.4185 -0.10953,-1.554 -0.81826,-2.5232 -1.21702,-1.6644 -1.31716,-1.6531 -1.80256,0.2031 -0.68707,2.6273 1.3283,4.4115 2.62082,2.3201 z m -11.69739,-4.7821 c 0.32569,-0.8487 0.35011,-1.7851 0.0543,-2.081 -0.75144,-0.7514 -4.70918,1.4836 -4.70918,2.6594 0,1.588 4.01501,1.0892 4.65492,-0.5784 z m -7.65492,-5.0158 c 0,-0.7926 -0.45,-1.441 -1,-1.441 -0.55,0 -1,0.9265 -1,2.059 0,1.1325 0.45,1.7809 1,1.441 0.55,-0.3399 1,-1.2665 1,-2.059 z m -5.45623,-3.3702 c -0.98324,-1.5909 -2.5669,-0.2947 -1.86731,1.5284 0.38476,1.0027 0.92908,1.1952 1.56919,0.5551 0.53905,-0.539 0.6732,-1.4766 0.29812,-2.0835 z m -9.14449,0.092 c 0.75465,-1.221 -2.265741,-5.1629 -3.955981,-5.1629 -1.83773,0 -1.81316,0.5059 0.17171,3.5352 1.6707,2.5498 2.89022,3.0743 3.784271,1.6277 z m 53.55839,-27.9129 c -0.0527,-2.1783 -6.25933,-6.25 -9.52701,-6.25 -5.39406,0 -1.48777,6.1178 4.64268,7.2711 4.45424,0.838 4.92691,0.7391 4.88433,-1.0211 z m -17.31346,-5.7122 c -0.11582,-1.9775 -1.38212,-3.0659 -6.4333,-5.5293 -5.75035,-2.8044 -6.47139,-2.9395 -8.41713,-1.5766 l -2.12803,1.4905 2.75104,1.0459 c 1.51307,0.5753 3.11644,0.8202 3.56305,0.5441 1.48686,-0.9189 5.56872,1.9373 5.23106,3.6604 -0.21372,1.0906 0.47561,1.8262 1.98065,2.1138 1.26965,0.2425 2.59835,0.5023 2.95266,0.5772 0.35432,0.075 0.57932,-0.9718 0.5,-2.326 z m 64.08496,-9.142 c -0.33229,-0.3323 -1.1948,-0.3678 -1.91667,-0.079 -0.79773,0.3192 -0.56078,0.5562 0.60417,0.6042 1.05416,0.043 1.64479,-0.193 1.3125,-0.5253 z m -5.22917,-18.3958 c 0.33992,-0.55 0.16803,-1 -0.38197,-1 -0.55,0 -1.27811,0.45 -1.61803,1 -0.33992,0.55 -0.16803,1 0.38197,1 0.55,0 1.27811,-0.45 1.61803,-1 z m 31.5,-25.0966 c 5.775,-1.2465 11.7375,-2.2493 13.25,-2.2284 1.5125,0.021 2.75,-0.2974 2.75,-0.7073 0,-0.4098 1.55783,-1.0374 3.46185,-1.3946 6.05944,-1.1367 13.8137,-5.1585 21.53815,-11.1708 4.125,-3.2107 7.68497,-6.2946 7.91104,-6.8531 0.22608,-0.5585 2.13858,-2.6753 4.25,-4.704 2.11143,-2.0286 3.83896,-4.0658 3.83896,-4.527 0,-0.4613 1.125,-2.0519 2.5,-3.5348 1.375,-1.4829 2.5,-3.2849 2.5,-4.0046 0,-0.7196 0.83838,-2.8768 1.86306,-4.7936 1.02468,-1.9169 3.02531,-6.9514 4.44584,-11.1878 1.42054,-4.2364 3.26166,-8.7386 4.09139,-10.0049 4.93668,-7.5343 5.35634,-30.0483 0.8722,-46.7925 -1.39926,-5.225 -2.82424,-10.625 -3.16662,-12 -1.31849,-5.2951 -8.85464,-17.6757 -14.2773,-23.4553 -4.02409,-4.289 -8.9597,-7.9327 -16.99226,-12.544705 -6.22646,-3.575 -12.73705,-7.7404 -14.46799,-9.2565 -1.73093,-1.5161 -6.45942,-4.2804 -10.50774,-6.143 -4.04832,-1.8626 -8.26058,-4.2391 -9.36058,-5.2812 -2.00758,-1.9019 -8.82026,-6.0087 -15.67381,-9.448501 -2.0206,-1.0141 -8.7706,-3.0329 -15,-4.4862 -6.22941,-1.4532 -11.47619,-3.0343 -11.65952,-3.5134 -0.18334,-0.4792 -1.22798,-0.8712 -2.32143,-0.8712 -2.37392,0 -5.34471,-2.7408 -5.34656,-4.9327 -7.2e-4,-0.862 -0.67572,-1.5673 -1.5,-1.5673 -1.02537,0 -1.41197,0.8417 -1.22413,2.6651 0.23101,2.2426 -0.20447,2.7704 -2.74654,3.3287 -1.6616,0.365 -4.61475,0.1376 -6.56257,-0.5052 -2.94716,-0.9727 -3.95293,-0.8992 -5.99328,0.4377 -1.34849,0.8835 -4.81888,1.811 -7.71198,2.0609 -2.8931,0.25 -6.49768,0.6307 -8.01018,0.8461 -3.00683,0.4282 -3.97082,-1.9276 -1.22061,-2.983 1.32199,-0.5073 1.28809,-0.7699 -0.25,-1.9368 -2.33597,-1.7722 -6.96812,-1.7831 -7.9797,-0.019 -0.43983,0.7671 -3.94969,2.0046 -7.79969,2.75 -4.919,0.9524 -7,1.7971 -7,2.8416 0,0.8174 0.9,1.6551 2,1.8614 1.1,0.2064 2.35986,1.0001 2.79969,1.7637 0.43983,0.7637 1.54876,1.3886 2.46429,1.3886 3.03393,0 -1.00513,3.0026 -4.8863,3.6324 -2.84776,0.462101 -3.65669,0.193801 -4.43074,-1.4696 -0.90677,-1.9485 -1.20094,-1.8558 -6.93441,2.185301 -3.2931,2.321 -6.48305,5.2141 -7.08878,6.4291 -0.60572,1.2149 -1.84656,3.0325 -2.75741,4.039 -0.91086,1.0065 -1.91915,4.0471 -2.24065,6.7569 -0.3215,2.7098 -0.96379,5.8269 -1.42732,6.9269 -0.76336,1.8115 -1.880071,5.852605 -2.577731,9.328105 -0.14663,0.7304 -0.59316,2.0804 -0.9923,3 -0.39914,0.9195 -0.63077,2.6525 -0.51474,3.8511 0.11604,1.1985 -0.51044,3.5743 -1.39218,5.2793 -0.88173,1.7051 -1.29094,3.6054 -0.90934,4.2228 0.3816,0.6175 0.79623,4.0918 0.92139,7.7207 0.21378,6.1983 2.18885,17.3937 4.39915,24.9359 0.538011,1.8359 4.920741,10.6109 9.739391,19.5 4.81865,8.8891 9.7955,18.2772 11.05967,20.8624 1.26417,2.5851 2.7417,4.9742 3.2834,5.309 0.54171,0.3348 0.98492,1.2707 0.98492,2.0797 0,0.8091 2.42899,5.4581 5.39775,10.3312 2.96876,4.873 5.68963,9.7797 6.04639,10.9038 0.87949,2.771 8.07414,3.6065 24.96889,2.8995 13.73103,-0.5746 22.779,-2.4702 41.09232,-8.6094 24.19058,-8.1094 54.46613,-24.5662 67.49465,-36.6879 2.475,-2.3027 6.2841,-5.7032 8.46467,-7.5565 l 3.96467,-3.3697 -2.43762,3.4675 c -3.49095,4.9658 -9.60658,10.69 -16.23017,15.1914 -3.15615,2.145 -6.53115,4.6893 -7.5,5.6542 -4.14013,4.123 -31.8342,21.4808 -44.26155,27.7419 -7.425,3.7408 -14.175,7.1645 -15,7.6083 -6.18313,3.3258 -25.93885,9.5791 -37.5,11.8699 -3.3,0.6539 -6.3756,1.414 -6.83467,1.6892 -1.13416,0.6798 8.87711,9.8857 13.83467,12.7217 3.87652,2.2175 9.82486,4.0598 16,4.9554 8.07427,1.171 34.33529,-0.302 44.5,-2.4961 z M 28.456759,198.70657 c -1.07549,-1.0755 -1.64645,0.4308 -0.89148,2.3518 0.7082,1.8021 0.76169,1.8052 1.11193,0.065 0.20237,-1.0055 0.10317,-2.093 -0.22045,-2.4166 z m -11.31904,-3.505 c 0.83955,-2.4069 -0.34105,-3.782 -2.33208,-2.7165 -1.07761,0.5768 -1.62265,1.6228 -1.29305,2.4817 0.69329,1.8067 3.02415,1.9577 3.62513,0.2348 z m 5.03443,-5.3871 c 0.35042,-0.3505 -0.24958,-1.8824 -1.33334,-3.4044 -1.08375,-1.522 -1.97045,-3.2603 -1.97045,-3.8629 0,-0.6026 -0.71713,-1.0956 -1.59362,-1.0956 -0.87649,0 -1.82897,-0.9 -2.11663,-2 -0.28766,-1.1 -1.11897,-2 -1.84736,-2 -1.77043,0 -3.10806,2.2781 -1.62743,2.7716 0.85113,0.2837 0.88041,0.9291 0.10766,2.373 -1.18718,2.2182 0.2792,4.8554 2.69982,4.8554 0.75766,0 1.37756,0.675 1.37756,1.5 0,1.5109 4.97477,2.1919 6.30379,0.8629 z m 47.69621,-2.3629 c 0,-0.55 -0.7875,-0.9931 -1.75,-0.9847 -1.49555,0.013 -1.5319,0.1562 -0.25,0.9847 1.88721,1.2196 2,1.2196 2,0 z m -55,-19.441 c 0,-1.6141 -1.4163,-2.8094 -2.29162,-1.9341 -0.78038,0.7804 0.29485,3.3751 1.39861,3.3751 0.49115,0 0.89301,-0.6485 0.89301,-1.441 z M 178.86836,19.951564 c 0,-0.825 -0.675,-1.5 -1.5,-1.5 -2.60246,0 -1.75909,1.9708 1.25,2.921 0.1375,0.044 0.25,-0.596 0.25,-1.421 z m 7.50708,344.511406 c -0.35034,-0.5668 0.0511,-0.7345 0.94098,-0.393 1.73242,0.6648 2.04939,1.3816 0.61096,1.3816 -0.51754,0 -1.21592,-0.4449 -1.55194,-0.9886 z m 8.96213,-1.0612 c -0.50477,-0.8168 -0.0707,-0.9585 1.45355,-0.4747 1.29671,0.4115 2.82443,0.1522 3.78785,-0.6429 1.36664,-1.128 1.53941,-1.1022 1.12489,0.1674 -0.60102,1.8408 -5.37543,2.5534 -6.36629,0.9502 z m -2.46921,-2.4502 c 0,-0.825 0.43588,-1.5 0.96862,-1.5 0.53273,0 0.70959,0.675 0.39301,1.5 -0.31659,0.825 -0.75246,1.5 -0.96862,1.5 -0.21615,0 -0.39301,-0.675 -0.39301,-1.5 z m 38.5,-4.5 c 0.33992,-0.55 1.04148,-1 1.55902,-1 0.51754,0 0.94098,0.45 0.94098,1 0,0.55 -0.70156,1 -1.55902,1 -0.85746,0 -1.2809,-0.45 -0.94098,-1 z m 532.5,-15 c 0,-0.55 -0.60277,-1 -1.33948,-1 -1.38444,0 -3.66052,-4.0342 -3.66052,-6.4881 0,-1.981 -2.07393,-3.0103 -3.01088,-1.4943 -1.13306,1.8333 -3.98912,0.4113 -3.98912,-1.9862 0,-1.2861 -0.65744,-2.0314 -1.79179,-2.0314 -0.98549,0 -3.79799,-2.0524 -6.25,-4.5608 -2.45202,-2.5084 -5.81038,-5.2074 -7.46304,-5.9976 -1.65265,-0.7903 -3.60287,-2.7879 -4.33381,-4.4392 -0.74887,-1.6918 -2.09537,-3.0024 -3.08466,-3.0024 -0.96562,0 -2.26825,-1.125 -2.89475,-2.5 -0.62649,-1.375 -1.59872,-2.5 -2.16051,-2.5 -0.59012,0 -1.02144,-2.735 -1.02144,-6.477 0,-5.871 -0.24312,-6.6362 -2.59904,-8.1799 -2.27812,-1.4927 -2.5237,-2.1741 -1.98886,-5.5188 0.33559,-2.0987 0.20552,-4.6052 -0.28905,-5.5701 -4.07527,-7.9503 -5.9638,-12.159 -6.52322,-14.5375 -0.36004,-1.5308 -1.54229,-3.5433 -2.62723,-4.4722 -1.08493,-0.929 -1.9726,-2.4658 -1.9726,-3.4152 0,-1.6617 -4.0594,-6.8293 -5.36467,-6.8293 -0.34943,0 -0.63533,1.125 -0.63533,2.5 0,1.9559 -0.51033,2.5 -2.34501,2.5 -3.30869,0 -5.65499,-3.0324 -5.65499,-7.3085 0,-5.2932 -2.81639,-11.7127 -6.76497,-15.4196 l -3.43849,-3.228 -4.64827,3.1832 c -5.21148,3.5689 -19.32107,13.8267 -23.14827,16.829 -3.59972,2.8238 -23.90988,17.1512 -32.32595,22.8038 -3.94573,2.65 -10.99905,6.7823 -15.67405,9.1827 -4.675,2.4005 -8.74074,4.7054 -9.03499,5.122 -0.29424,0.4167 -2.54424,1.6889 -5,2.8271 -2.45575,1.1382 -5.14001,2.4644 -5.96501,2.9471 -4.69809,2.7485 -15.99143,8.0621 -17.14623,8.0673 -0.74458,0 -2.69456,0.7053 -4.33331,1.5598 -1.63875,0.8545 -5.23875,2.0293 -8,2.6107 -2.76125,0.5813 -5.47046,1.3734 -6.02046,1.7601 -1.61678,1.1367 -8.2518,2.8385 -19.94715,5.1161 -28.86162,5.6209 -61.94494,0.1703 -81.55285,-13.4362 -2.475,-1.7174 -5.80164,-3.7941 -7.39253,-4.6149 -2.98683,-1.5409 -12.05074,-11.9453 -16.82281,-19.3107 -1.49343,-2.3051 -4.09535,-6.0538 -5.78204,-8.3306 -2.98769,-4.033 -8.94338,-19.0567 -8.98289,-22.6601 -0.0109,-0.9898 -0.7008,-3.1167 -1.53322,-4.7264 -0.83243,-1.6097 -1.74133,-5.2999 -2.0198,-8.2004 -1.36061,-14.1719 -1.43005,-16.6781 -0.47842,-17.2663 0.55644,-0.3439 1.01171,-2.8671 1.01171,-5.6071 0,-7.3509 3.48937,-17.3464 6.54088,-18.7368 2.65259,-1.2086 2.97654,-2.8724 1.53673,-7.8927 -0.71161,-2.4812 -0.50298,-4.0843 0.91295,-7.0149 1.00944,-2.0893 3.06911,-7.5318 4.57705,-12.0943 2.17795,-6.5898 3.43936,-8.8277 6.13458,-10.8834 1.97565,-1.5069 3.17121,-3.1656 2.8622,-3.9708 -0.29187,-0.7606 0.24924,-1.6706 1.20247,-2.0221 0.95323,-0.3516 1.95814,-0.9423 2.23314,-1.3127 0.275,-0.3704 2.4125,-1.8714 4.75,-3.3355 2.47774,-1.5519 4.25,-3.4239 4.25,-4.489 0,-1.0048 1.125,-2.3395 2.5,-2.966 1.375,-0.6265 2.5,-1.5629 2.5,-2.081 0,-0.5181 1.30623,-1.2289 2.90274,-1.5796 1.96,-0.4305 3.30277,-1.6033 4.13444,-3.6111 0.67743,-1.6354 2.47361,-4.5363 3.99152,-6.4463 3.02535,-3.8069 12.11785,-10.4639 14.29221,-10.4639 0.75301,0 2.22636,-0.9517 3.2741,-2.1148 1.04775,-1.1631 2.91749,-2.502 4.15499,-2.9752 1.30658,-0.4997 2.25,-1.7073 2.25,-2.8802 0,-1.419105 1.36329,-2.660405 4.58536,-4.175005 2.52195,-1.1854 5.09515,-2.9716 5.71824,-3.9694 0.75814,-1.2139 1.85961,-1.6316 3.32988,-1.2626 1.20836,0.3033 3.78753,-0.2033 5.73149,-1.1258 1.94397,-0.9224 3.95245,-1.4189 4.4633,-1.1032 0.51084,0.3158 2.26455,-0.092 3.89712,-0.9067 1.63257,-0.8145 5.19817,-1.9037 7.92355,-2.4205 5.50529,-1.0441 13.17164,-3.8806 18.41195,-6.8124 6.15669,-3.4445 11.50528,-3.8463 8.86587,-0.666 -0.7792,0.9389 -0.51953,1.5593 0.99091,2.3677 1.72017,0.9206 2.55204,0.6126 5.21288,-1.9302 3.5224,-3.3662 4.67242,-3.7028 5.47815,-1.603 0.98199,2.559 3.32007,2.5589 8.13333,-4e-4 3.57919,-1.903 5.60168,-2.3711 8.28595,-1.9176 1.95306,0.33 5.43276,0.1771 7.73267,-0.3396 3.23412,-0.7267 4.44253,-0.6252 5.33295,0.4477 0.63321,0.7629 1.99277,1.3872 3.02124,1.3872 2.14662,0 6.88516,3.7956 6.88516,5.515 0,0.6349 1.31758,2.3283 2.92795,3.7632 2.98728,2.6617 10.7959,15.217305 15.0641,24.221805 1.30352,2.75 2.62607,5.225 2.93899,5.5 1.06041,0.9319 1.02296,7.3505 -0.0504,8.6438 -0.78226,0.9426 -0.49527,2.0886 1.07551,4.2945 1.67976,2.359 1.91587,3.4324 1.0932,4.9695 -0.57712,1.0784 -1.04931,2.8276 -1.04931,3.8872 0,1.5097 -1.52779,2.4087 -7.06229,4.1554 -5.34955,1.6883 -7.3348,2.827 -8.18596,4.6951 -0.82701,1.8151 -1.80063,2.402 -3.68772,2.223 -1.41021,-0.1337 -4.04266,0.5361 -5.84988,1.4884 -2.01119,1.0598 -5.11459,1.6548 -8,1.5338 -8.37778,-0.3513 -14.46731,-5.8241 -6.35589,-5.7121 4.13487,0.057 9.14174,-2.5478 9.14174,-4.7561 0,-1.8357 -4.02597,-12.6838 -5.16313,-13.9122 -1.38158,-1.4924 -11.27362,-3.5283 -11.67951,-2.4038 -0.39639,1.0982 -7.06445,0.1025 -8.8644,-1.3237 -0.80058,-0.6343 -1.96992,-0.4221 -3.47251,0.6304 -1.246,0.8727 -3.20798,1.5868 -4.35994,1.5868 -1.15196,0 -4.73419,1.35 -7.96051,3 -3.22632,1.65 -6.3981,3 -7.04839,3 -1.76659,0 -11.45165,8.1543 -11.45165,9.6416 0,0.7084 -0.9,1.7697 -2,2.3584 -1.1,0.5887 -2,1.6549 -2,2.3694 0,0.7144 -1.75615,3.806 -3.90256,6.8701 -2.1464,3.0641 -4.20173,6.5137 -4.56738,7.6658 -0.36566,1.1521 -1.08451,2.0947 -1.59745,2.0947 -0.51293,0 -0.93261,0.6458 -0.93261,1.4352 0,0.7894 -1.575,2.0048 -3.5,2.7009 -3.99027,1.4429 -4.43439,3.096 -1.40234,5.2197 l 2.09765,1.4693 -2.03696,1.0901 c -1.47786,0.791 -2.22518,0.7857 -2.72266,-0.019 -1.08035,-1.748 -2.44703,1.2107 -1.78241,3.8588 0.31353,1.2492 0.003,2.9545 -0.69,3.7895 -1.0346,1.2467 -0.93778,1.754 0.54111,2.8353 2.09373,1.531 1.2255,3.6205 -1.50439,3.6205 -2.62745,0 -3.38976,1.6825 -1.29376,2.8555 1.27539,0.7137 1.67803,2.0152 1.48851,4.8114 -0.82086,12.1113 -0.32525,27.9555 0.94883,30.3331 1.59517,2.9767 3.75575,12.0987 3.20535,13.5331 -0.38309,0.9983 0.0989,1.4669 1.5089,1.4669 1.13949,0 2.53509,0.8656 3.10133,1.9237 0.56623,1.058 3.58451,3.1737 6.70727,4.7015 4.99477,2.4437 7.07045,2.8236 17.25566,3.1584 10.97202,0.3606 12.20589,0.1917 23.57791,-3.2272 6.6,-1.9843 14.475,-4.1462 17.5,-4.8044 3.025,-0.6581 5.7287,-1.5096 6.00823,-1.8921 0.27953,-0.3826 7.70453,-4.3911 16.5,-8.9079 17.39651,-8.9338 25.93999,-13.9106 37.49177,-21.8398 10.02273,-6.8796 22.79851,-15.3602 33.62308,-22.3189 15.08774,-9.6994 23.81225,-15.7652 25.37692,-17.6434 0.825,-0.9904 3.42555,-2.4056 5.779,-3.1449 2.66978,-0.8387 5.7636,-2.9549 8.22664,-5.627 5.00766,-5.4326 6.53676,-6.2204 12.57626,-6.4792 2.70496,-0.1159 5.3681,-0.4627 5.9181,-0.7707 0.55,-0.3079 3.72836,-0.6669 7.06301,-0.7977 3.33466,-0.1307 7.18334,-0.6637 8.55263,-1.1843 1.50149,-0.5709 3.13215,-0.587 4.10851,-0.041 1.48163,0.8292 5.30278,1.4975 10.19252,1.7827 1.05416,0.062 1.64371,0.3847 1.31011,0.7183 -0.59978,0.5998 0.11742,1.7123 3.52322,5.4651 0.9625,1.0606 1.75,3.073 1.75,4.472 0,1.399 1.125,3.7569 2.5,5.2398 1.85354,1.9989 2.5,3.7977 2.5,6.9563 0,3.0427 0.41183,4.2602 1.44098,4.2602 1.78958,0 2.81888,1.5961 3.18079,4.9322 0.15321,1.4123 1.41437,5.7178 2.80258,9.5678 1.38821,3.85 2.53563,8.1625 2.54983,9.5834 0.0142,1.4208 0.34106,2.8985 0.72635,3.2838 1.71744,1.7175 4.15404,12.0361 3.24379,13.7369 -1.2059,2.2532 -1.23046,9.6011 -0.0346,10.3402 1.46625,0.9062 3.96426,-0.472 4.62417,-2.5512 0.78882,-2.4853 2.46607,-1.4516 2.46607,1.5199 0,1.2623 1.125,3.5089 2.5,4.9925 1.375,1.4837 2.5,3.6435 2.5,4.7996 0,1.1561 1.07366,4.3954 2.38591,7.1984 1.31224,2.8031 3.39877,7.3465 4.63673,10.0965 1.23795,2.75 3.7703,8.1243 5.62744,11.9428 1.85714,3.8184 3.82968,8.5434 4.38343,10.5 0.55374,1.9565 2.01024,4.7292 3.23665,6.1616 1.98188,2.3148 2.61091,2.5012 5.65674,1.6756 3.99191,-1.082 14.5117,-11.3104 15.33836,-14.9136 0.29861,-1.3015 1.70104,-6.4164 3.11652,-11.3664 1.41549,-4.95 2.87219,-12.2788 3.23713,-16.2862 0.66628,-7.3165 2.23182,-9.1758 3.47857,-4.1313 1.21155,4.9021 2.15207,6.8813 3.01621,6.3473 1.77744,-1.0985 0.94174,10.7418 -0.98477,13.9522 -1.02909,1.7149 -2.15055,5.2926 -2.49214,7.9503 -0.34159,2.6578 -1.52461,5.981 -2.62893,7.3849 -1.10432,1.4039 -2.00785,3.1708 -2.00785,3.9264 0,0.7555 -1.35,3.2374 -3,5.5151 -1.65,2.2778 -3,4.5212 -3,4.9854 0,0.4642 -2.03955,5.0358 -4.53233,10.159 -4.65695,9.5712 -13.73178,20.697 -16.88159,20.697 -0.87232,0 -1.58604,0.7141 -1.58604,1.5868 0,0.8728 -1.35,2.0965 -3,2.7193 -1.65,0.6228 -3,1.4679 -3,1.8779 0,1.455 -4.20702,3.099 -4.93129,1.9272 -1.00692,-1.6293 -7.66843,2.0132 -7.28864,3.9853 0.20663,1.073 -1.0338,1.9541 -3.99011,2.8344 -2.35948,0.7025 -5.32363,1.6805 -6.58701,2.1732 -3.45456,1.3473 -6.20295,1.0796 -6.20295,-0.6041 0,-0.825 0.765,-1.5 1.7,-1.5 1.16931,0 1.37759,-0.3224 0.66722,-1.0328 -1.22979,-1.2298 -4.36074,-0.2369 -4.38253,1.3898 -0.0112,0.8333 -0.21705,0.8258 -0.76002,-0.028 -0.40959,-0.6439 -1.98358,-1.4817 -3.49777,-1.8617 -2.43777,-0.6119 -2.8773,-0.3346 -3.83781,2.4207 -0.99748,2.8614 -3.88909,4.4314 -3.88909,2.1117 z m 25,-3.9326 c 0,-0.513 0.93391,-1.2291 2.07536,-1.5913 3.57443,-1.1345 1.50242,-1.4744 -2.40719,-0.3949 -2.04565,0.5648 -3.45629,1.4526 -3.13475,1.9728 0.7549,1.2215 3.46658,1.2319 3.46658,0.013 z m 8.8125,-3.7505 c 0.72187,-0.2889 1.58438,-0.2534 1.91667,0.079 0.33229,0.3323 -0.25834,0.5686 -1.3125,0.5252 -1.16495,-0.048 -1.4019,-0.285 -0.60417,-0.6042 z m 206.18744,-0.1393 c -1.925,-0.1773 -6.87496,-1.2127 -10.99996,-2.3009 -6.5432,-1.7261 -9.7512,-3.0872 -19.5417,-8.2914 -2.1122,-1.1228 -6.1093,-4.0949 -11.8497,-8.8113 -1.8248,-1.4992 -4.3957,-4.3087 -5.7132,-6.2431 -1.3175,-1.9345 -2.8857,-3.5203 -3.4849,-3.5241 -0.5992,0 -1.6062,-1.1409 -2.2377,-2.5269 -0.6315,-1.386 -2.2217,-2.9282 -3.5338,-3.4271 -2.4523,-0.9323 -9.639,-8.963 -9.639,-10.771 0,-0.5566 -0.8148,-2.0853 -1.8107,-3.397 -1.867,-2.4589 -4.1893,-9.2999 -4.1893,-12.3406 0,-0.948 -0.8868,-2.4708 -1.9708,-3.3839 -1.9009,-1.6015 -2.5467,-3.6891 -5.1535,-16.6603 -0.6632,-3.3 -1.5821,-6.7589 -2.0419,-7.6865 -0.4599,-0.9276 -1.0412,-5.2026 -1.2917,-9.5 -1.6283,-27.9264 -2.2555,-35.3603 -3.0505,-36.1552 -0.305,-0.3051 -2.2338,-0.1065 -4.2861,0.4413 l -3.73148,0.996 0.032,-5.5478 c 0.028,-4.9554 0.48058,-6.1351 4.23608,-11.0478 2.3125,-3.025 5.3416,-6.7559 6.7313,-8.2908 1.3898,-1.5349 2.5269,-3.6458 2.5269,-4.6909 0,-1.0452 0.45,-2.1784 1,-2.5183 0.55,-0.3399 1.0066,-1.379 1.0147,-2.309 0.01,-0.9301 0.5706,-2.6425 1.25,-3.8054 0.6794,-1.1629 2.2959,-4.0879 3.5922,-6.5 2.3846,-4.4372 3.3372,-5.6397 9.3566,-11.8121 4.4084,-4.5204 13.6625,-6.7336 16.502,-3.9465 1.7004,1.669 1.9792,1.6613 5.9182,-0.1635 2.2735,-1.0533 4.4022,-2.6146 4.7303,-3.4697 0.5233,-1.3637 1.09,-1.3028 4.6163,0.4961 4.1955,2.1404 4.6055,2.8973 3.1273,5.7736 -0.4908,0.9551 -1.4889,3.0865 -2.2179,4.7365 -0.729,1.65 -1.5086,3.3933 -1.7323,3.8739 -0.4741,1.0188 2.2106,0.6513 17.8426,-2.4423 11.7439,-2.3241 16.46656,-4.2734 15.63076,-6.4513 -0.3196,-0.8329 1.315,-1.4336 5.1156,-1.8803 5.0411,-0.5925 5.837,-0.4168 8.1694,1.8032 2.2726,2.1631 3.6764,2.5063 11.6435,2.8467 9.5829,0.4094 14.2972,2.0343 23.0857,7.9568 2.2798,1.5363 4.538,2.7933 5.0184,2.7933 0.4803,0 3.0515,1.8 5.7138,4 2.6623,2.2 5.2416,4 5.7317,4 0.4901,0 0.8911,0.576 0.8911,1.2799 0,0.704 1.4625,2.6617 3.25,4.3506 1.7875,1.6888 4.825,5.8742 6.75,9.3008 1.925,3.4267 4.5108,7.4944 5.7462,9.0393 2.5937,3.2437 8.7434,18.6479 9.7926,24.5294 0.3925,2.2 1.5117,5.8 2.4871,8 1.9486,4.3948 3.4602,25.1713 1.8699,25.7014 -0.5298,0.1766 -0.5215,1.6169 0.02,3.5057 1.0906,3.8027 0.3998,7.0375 -2.0687,9.6872 -0.9889,1.0615 -1.714,2.9462 -1.6112,4.1883 0.1767,2.1341 -0.5245,4.1026 -3.8286,10.7484 -0.7741,1.5571 -1.4075,3.4464 -1.4075,4.1985 0,0.7521 -1.1804,2.6281 -2.6231,4.169 -1.4426,1.5408 -3.0617,4.039 -3.5978,5.5515 -0.5361,1.5125 -1.4041,2.75 -1.9289,2.75 -0.5249,0 -1.4249,1.35 -2,3 -0.5752,1.65 -1.376,3 -1.7796,3 -0.4036,0 -2.1223,2.1375 -3.8194,4.75 -4.7725,7.3466 -16.1926,18.4758 -21.7519,21.1978 -2.7496,1.3463 -5.6743,2.9722 -6.4993,3.6131 -0.825,0.641 -3.75,1.9495 -6.5,2.908 -2.75,0.9584 -5.9,2.1195 -7,2.5802 -4.3984,1.8419 -19.426,2.9642 -28.5,2.1285 z m 48.9036,-64.089 c 6.872,-7.4738 10.6604,-24.4615 8.2207,-36.8623 -1.3286,-6.753 -6.8933,-20.6888 -10.008,-25.0629 -1.1639,-1.6347 -2.1163,-3.4268 -2.1163,-3.9824 0,-2.1927 -11.7728,-12.4796 -17,-14.8544 -4.8541,-2.2053 -7.6139,-2.6085 -23.5,-3.4338 -9.89996,-0.5144 -22.16246,-1.2057 -27.24996,-1.5363 -10.5603,-0.6863 -10.8259,-0.4235 -7.3369,7.2595 1.028,2.2638 2.2003,5.624 2.6052,7.4671 0.4048,1.8432 1.0849,4.041 1.5114,4.8841 0.4264,0.843 1.3559,3.5578 2.0655,6.0328 2.984,10.4086 18.2868,35.2262 26.56986,43.0904 11.0899,10.5291 20.9445,16.7683 30.5856,19.3644 9.0659,2.4413 11.5824,2.0609 15.6529,-2.3662 z M 31.327239,245.38497 c -0.36253,-0.5865 -0.44468,-1.281 -0.18255,-1.5431 0.26212,-0.2621 0.74306,0.2178 1.06875,1.0665 0.67618,1.7622 0.0999,2.0721 -0.8862,0.4766 z m -13.45888,-134.8154 c 0,-0.55 0.45,-1.2781 1,-1.618 0.55,-0.3399 1,-0.1681 1,0.3819 0,0.55 -0.45,1.2782 -1,1.6181 -0.55,0.3399 -1,0.168 -1,-0.382 z M 741.67985,56.774064 c -0.92867,-0.245 -1.82867,-1.4303 -2,-2.634 -0.20182,-1.418 -1.01562,-2.1885 -2.31149,-2.1885 -5.46884,0 -5.89535,-3.5697 -0.75,-6.2772 2.16937,-1.1415 3.69146,-2.6581 3.61111,-3.598 -0.0764,-0.8937 0.54121,-1.6248 1.37245,-1.6248 1.2625,0 1.29595,-0.2595 0.20319,-1.5762 -1.08413,-1.3063 -1.06229,-1.7318 0.12755,-2.4847 0.78964,-0.4997 2.19664,-0.9154 3.12668,-0.9238 2.33567,-0.021 3.17038,-1.7137 1.34808,-2.7335 -1.272,-0.7119 -1.13947,-1.2332 0.86229,-3.392 1.30091,-1.403 2.67865,-3.9776 3.06163,-5.7213 0.5057,-2.3024 1.41307,-3.3503 3.31417,-3.8274 2.92384,-0.7339 7.72285,-5.8807 7.72285,-8.2826 0,-2.0958997 9.04987,-7.0546997 12.90977,-7.0737997 2.22113,-0.011 2.69036,-0.2684 1.66843,-0.9152 -1.05232,-0.6661 -0.40265,-1.1544 2.5,-1.8792 7.53361,-1.88110004 8.4218,-1.99680004 8.4218,-1.09670004 0,0.49850004 1.06749,0.90640004 2.37219,0.90640004 2.00149,0 2.474,0.6367 3.02369,4.0742 0.63258,3.9559 0.74229,4.0543 3.77686,3.3878 3.12126,-0.6855 3.12459,-0.6817 2.53918,2.9257997 -0.3224,1.9867 -0.17859,3.6122 0.31957,3.6122 1.70313,0 -0.16576,2.8018 -2.22874,3.3413 -1.58749,0.4151 -1.94684,1.1246 -1.56949,3.0986 0.4702,2.4596 0.1865,2.7267 -3.15134,2.9666 -0.77994,0.056 -1.6053,0.6636 -1.83412,1.3501 -0.25197,0.7559 2.65949,2.6884 7.38305,4.9004 10.95957,5.1324 14.03985,9.6118 9.3632,13.616 -1.89886,1.6259 -2.39268,1.6148 -9.25,-0.2084 -11.95924,-3.1796 -18.82298,-3.5622 -23.07,-1.2859 -1.99164,1.0675 -3.29557,2.2848 -2.89761,2.7053 0.39796,0.4204 -0.29116,0.4525 -1.53137,0.071 -1.57735,-0.4849 -2.4327,-0.2299 -2.84655,0.8485 -0.32539,0.848 -2.12951,1.8303 -4.00914,2.1829 -1.87963,0.3526 -3.75694,1.2477 -4.1718,1.989 -0.41485,0.7413 -2.43913,1.5568 -4.49839,1.8122 -2.05926,0.2554 -5.25412,1.3976 -7.09968,2.5382 -1.84557,1.1407 -3.52746,2.0217 -3.73754,1.9579 -0.21009,-0.064 -1.1418,-0.3165 -2.07048,-0.5615 z m -10.31149,-15.3225 c 0.33992,-0.55 0.81648,-1 1.05902,-1 0.24254,0 0.44098,0.45 0.44098,1 0,0.55 -0.47656,1 -1.05902,1 -0.58246,0 -0.7809,-0.45 -0.44098,-1 z"
     id="path817"
     inkscape:connector-curvature="0"
     sodipodi:nodetypes="ccscscsccccccsscscccsccccccccccscccccccccccscsssscccccsccccsccscssccccccccscccsccscssssccccccccccssssccccccsccccccccccscccccccccscccsccscscsscssssscccscccsccccsccccccccscsccccccccccsccccccccccsscccccccccsccssssscccccscccscccccccccccccccccsssssccsccccsssccccccscsccccscsccccccccccsccscccccsccccccscsccsccsccccccccccccccccccccccccccssssccsscsccsscsssscsccsccccccsscssssssscsscsscccscsscccccsssssccscccccccscccccccccscscccccccscssscccsccsccccccccccccccccsscsccccscsccccsccccssssssccssccccccccsccccsccccccccccccccccccccscsssssccccscscccccccccccccsscscssssccccsscccccccccccccccccccccccscscsccccccccccsscscccccccscccscccsssscccccsccccscsscsccccccccccsscccccccccccccsssssccscsssccccccscccsscccscccccccccccscsccccsssss" />
</svg>
